<?xml version="1.0" encoding="utf-8"?>
<!-- Generator: Adobe Illustrator 27.5.0, SVG Export Plug-In . SVG Version: 6.00 Build 0)  -->
<svg version="1.1" id="Ñëîé_1" xmlns="http://www.w3.org/2000/svg" xmlns:xlink="http://www.w3.org/1999/xlink" x="0px" y="0px"
	 viewBox="0 0 4354.232 2200" style="enable-background:new 0 0 4354.232 2200;" xml:space="preserve">
<rect style="fill:#FFFFFF;" width="4354.232" height="2200"/>
<g>
	<path style="fill:#E5F0F8;" d="M1771.875,302.155c-17.768,19.36-18.154,48.339-2.398,68.349l-65.956,71.867l12.454,11.43
		l65.947-71.857c21.28,14.05,50.103,11.142,67.901-8.251c19.74-21.51,18.394-55.004-3.115-74.745
		C1825.198,279.207,1791.615,280.646,1771.875,302.155z M1841.353,365.919c-15.373,16.751-41.657,17.879-58.408,2.506
		c-16.846-15.461-17.878-41.657-2.505-58.408c15.459-16.845,41.56-17.965,58.406-2.505
		C1855.599,322.885,1856.813,349.074,1841.353,365.919z"/>
	<g>
		<path style="fill:#E5F0F8;" d="M1236.424,1095.62v-11.579l66.846-36.177v17.686l-44.652,24.281l44.652,24.281v17.686
			L1236.424,1095.62z"/>
		<path style="fill:#E5F0F8;" d="M1323.613,1146.268l-10.964-4.823l41.216-124.777l10.964,5.146L1323.613,1146.268z"/>
		<path style="fill:#E5F0F8;" d="M1442.639,1084.041v11.579l-66.846,36.177v-17.686l44.652-24.281l-44.652-24.281v-17.686
			L1442.639,1084.041z"/>
	</g>
	<g>
		
			<line style="fill:none;stroke:#BBDBF3;stroke-width:4.6097;stroke-linecap:round;stroke-linejoin:round;stroke-miterlimit:10;stroke-dasharray:27.5538;" x1="3002.033" y1="733.202" x2="4037.58" y2="733.202"/>
		
			<line style="fill:none;stroke:#BBDBF3;stroke-width:4.6097;stroke-linecap:round;stroke-linejoin:round;stroke-miterlimit:10;stroke-dasharray:27.5538;" x1="3002.033" y1="665.956" x2="4037.58" y2="665.956"/>
		
			<line style="fill:none;stroke:#BBDBF3;stroke-width:4.6097;stroke-linecap:round;stroke-linejoin:round;stroke-miterlimit:10;stroke-dasharray:27.5538;" x1="4037.58" y1="598.709" x2="3002.033" y2="598.709"/>
		
			<line style="fill:none;stroke:#BBDBF3;stroke-width:4.6097;stroke-linecap:round;stroke-linejoin:round;stroke-miterlimit:10;stroke-dasharray:27.5538;" x1="3002.033" y1="531.462" x2="4037.58" y2="531.462"/>
		
			<line style="fill:none;stroke:#BBDBF3;stroke-width:4.6097;stroke-linecap:round;stroke-linejoin:round;stroke-miterlimit:10;stroke-dasharray:27.5538;" x1="3002.033" y1="464.215" x2="4037.58" y2="464.215"/>
		
			<line style="fill:none;stroke:#BBDBF3;stroke-width:4.6097;stroke-linecap:round;stroke-linejoin:round;stroke-miterlimit:10;stroke-dasharray:27.5538;" x1="3002.033" y1="396.969" x2="4037.58" y2="396.969"/>
		
			<line style="fill:none;stroke:#BBDBF3;stroke-width:4.6097;stroke-linecap:round;stroke-linejoin:round;stroke-miterlimit:10;stroke-dasharray:27.5538;" x1="3002.033" y1="329.722" x2="4037.58" y2="329.722"/>
		
			<path style="fill:none;stroke:#2EC6FC;stroke-width:9.2193;stroke-linecap:round;stroke-linejoin:round;stroke-miterlimit:10;" d="
			M3003.559,428.524c0,0,49.306-24.178,87.299,5.757c37.993,29.935,82.893,102.451,237.166,96.564
			c154.273-5.887,235.458,41.827,333.875,92.852c123.188,63.868,216.443-30.336,254.436-113.906
			c37.992-83.57,121.245-80.116,121.245-80.116"/>
		
			<path style="fill:none;stroke:#F74242;stroke-width:9.2193;stroke-linecap:round;stroke-linejoin:round;stroke-miterlimit:10;" d="
			M3003.559,707.425c0,0,51.609-85.749,177.1-63.609c125.491,22.14,259.041,22.14,355.749-45.107
			c59.377-41.288,138.155-140.93,280.915-55.055s190.683,82.893,220.257,79.439"/>
		
			<ellipse transform="matrix(0.2298 -0.9732 0.9732 0.2298 1804.0088 3565.856)" style="fill:#FFFFFF;stroke:#F74242;stroke-width:9.2193;stroke-linecap:round;stroke-linejoin:round;stroke-miterlimit:10;" cx="3154.832" cy="643.196" rx="27.558" ry="27.558"/>
		
			<ellipse transform="matrix(0.2298 -0.9732 0.9732 0.2298 1987.8086 3814.2134)" style="fill:#FFFFFF;stroke:#F74242;stroke-width:9.2193;stroke-linecap:round;stroke-linejoin:round;stroke-miterlimit:10;" cx="3403.636" cy="651.255" rx="27.558" ry="27.558"/>
		
			<ellipse transform="matrix(0.7071 -0.7071 0.7071 0.7071 724.8823 2769.6033)" style="fill:#FFFFFF;stroke:#F74242;stroke-width:9.2193;stroke-linecap:round;stroke-linejoin:round;stroke-miterlimit:10;" cx="3705.648" cy="509.791" rx="27.558" ry="27.558"/>
		
			<ellipse transform="matrix(0.7071 -0.7071 0.7071 0.7071 587.7073 2475.4387)" style="fill:#FFFFFF;stroke:#2EC6FC;stroke-width:9.2193;stroke-linecap:round;stroke-linejoin:round;stroke-miterlimit:10;" cx="3281.972" cy="528.294" rx="27.558" ry="27.558"/>
		
			<ellipse transform="matrix(0.7071 -0.7071 0.7071 0.7071 639.5806 2833.5491)" style="fill:#FFFFFF;stroke:#2EC6FC;stroke-width:9.2193;stroke-linecap:round;stroke-linejoin:round;stroke-miterlimit:10;" cx="3740.187" cy="644.732" rx="27.558" ry="27.558"/>
		
			<ellipse transform="matrix(0.7071 -0.7071 0.7071 0.7071 852.3242 2941.9028)" style="fill:#FFFFFF;stroke:#2EC6FC;stroke-width:9.2193;stroke-linecap:round;stroke-linejoin:round;stroke-miterlimit:10;" cx="3977.353" cy="442.105" rx="27.558" ry="27.558"/>
		
			<ellipse transform="matrix(0.7071 -0.7071 0.7071 0.7071 725.9088 2983.7744)" style="fill:#FFFFFF;stroke:#F74242;stroke-width:9.2193;stroke-linecap:round;stroke-linejoin:round;stroke-miterlimit:10;" cx="3964.689" cy="615.638" rx="27.558" ry="27.558"/>
	</g>
	<path style="fill:#E5F0F8;" d="M503.018,2048.689c0,0-270.278-477.621,13.184-752.26s551.542,62.145,845.991-42.385
		c294.449-104.53,267.275-796.792,978.53-771.247c711.255,25.545,709.79,520.373,1064.3,675.714s791.056,133.203,670.933,890.178
		H503.018z"/>
	<path style="fill:#0775EF;" d="M4148.873,2072.544H429.175c-13.175,0-23.855-10.68-23.855-23.855l0,0
		c0-13.175,10.68-23.855,23.855-23.855h3719.698c13.175,0,23.855,10.68,23.855,23.855l0,0
		C4172.728,2061.864,4162.047,2072.544,4148.873,2072.544z"/>
	<g>
		<rect x="1841.898" y="428.68" style="fill:#088CFF;" width="1112.758" height="1596.153"/>
		<polygon style="fill:#FFFFFF;" points="2890.446,482.718 2890.446,1962.218 1906.091,1962.218 1906.091,595.673 2133.891,482.718 
					"/>
		<polygon style="fill:#E5F0F8;" points="2133.891,482.718 1950.211,651.062 1906.091,595.673 		"/>
		<path style="fill:#93ACBF;" d="M2552.483,568.576h-308.412c-28.642,0-51.861-23.219-51.861-51.861V415.588h412.133v101.128
			C2604.344,545.357,2581.125,568.576,2552.483,568.576z"/>
		<path style="fill:#BBDBF3;" d="M2552.483,559.227h-308.412c-28.642,0-51.861-23.219-51.861-51.861V406.238h412.133v101.128
			C2604.344,536.008,2581.125,559.227,2552.483,559.227z"/>
		<path style="fill:#93ACBF;" d="M2285.623,451.138c-13-9.918-30.834-8.998-42.677,1.338c-1.718,1.501-3.296,3.161-4.728,5.037
			c-1.431,1.875-2.64,3.87-3.608,5.89c-6.807,14.177-3.017,31.596,9.983,41.514c12.968,9.894,30.802,8.972,42.677-1.338
			c1.693-1.468,3.296-3.161,4.727-5.036c1.432-1.876,2.615-3.837,3.61-5.891C2302.448,478.5,2298.591,461.031,2285.623,451.138z"/>
		<g>
			<path style="fill:#F9E181;" d="M2246.657,450.442c11.698-8.925,27.745-8.096,38.401,1.203c1.546,1.351,2.967,2.844,4.254,4.533
				c1.288,1.688,2.375,3.482,3.247,5.3c6.125,12.757,2.715,28.431-8.983,37.355c-11.668,8.902-27.716,8.073-38.402-1.204
				c-1.523-1.321-2.967-2.844-4.254-4.532c-1.288-1.688-2.353-3.453-3.248-5.301
				C2231.519,475.062,2234.988,459.344,2246.657,450.442z"/>
			<path style="fill:#F2BB16;" d="M2237.673,487.796l47.385-36.151c1.546,1.351,2.967,2.844,4.254,4.533
				c1.288,1.688,2.375,3.482,3.247,5.3l-47.385,36.151c-1.523-1.321-2.967-2.844-4.254-4.532
				C2239.632,491.409,2238.567,489.644,2237.673,487.796z"/>
		</g>
		<path style="fill:#93ACBF;" d="M2551.952,451.138c-12.999-9.918-30.833-8.998-42.676,1.338c-1.718,1.501-3.296,3.161-4.728,5.037
			c-1.431,1.875-2.639,3.87-3.608,5.89c-6.807,14.177-3.017,31.596,9.983,41.514c12.968,9.894,30.802,8.972,42.677-1.338
			c1.693-1.468,3.296-3.161,4.727-5.036c1.432-1.876,2.616-3.837,3.61-5.891C2568.777,478.5,2564.92,461.031,2551.952,451.138z"/>
		<g>
			<path style="fill:#F9E181;" d="M2549.898,450.442c-11.698-8.925-27.745-8.096-38.401,1.203c-1.546,1.351-2.966,2.844-4.254,4.533
				c-1.288,1.688-2.375,3.482-3.247,5.3c-6.125,12.757-2.715,28.431,8.983,37.355c11.668,8.902,27.716,8.073,38.402-1.204
				c1.523-1.321,2.967-2.844,4.254-4.532c1.288-1.688,2.353-3.453,3.247-5.301C2565.036,475.062,2561.566,459.344,2549.898,450.442z
				"/>
			<path style="fill:#F2BB16;" d="M2558.882,487.796l-47.385-36.151c-1.546,1.351-2.966,2.844-4.254,4.533
				c-1.288,1.688-2.375,3.482-3.247,5.3l47.385,36.151c1.523-1.321,2.967-2.844,4.254-4.532
				C2556.922,491.409,2557.988,489.644,2558.882,487.796z"/>
		</g>
		<polygon style="fill:#E5F0F8;" points="2503.995,412.604 2410.551,552.832 2342.291,552.832 2435.737,412.604 		"/>
		<polygon style="fill:#E5F0F8;" points="2399.051,412.604 2305.606,552.832 2273.578,552.832 2367.023,412.604 		"/>
		<g>
			
				<ellipse transform="matrix(0.7071 -0.7071 0.7071 0.7071 23.0264 1686.2384)" style="fill:#2EC6FC;" cx="2046.983" cy="815.324" rx="98.247" ry="98.247"/>
			
				<ellipse transform="matrix(0.1518 -0.9884 0.9884 0.1518 930.3878 2714.8257)" style="fill:#FFFFFF;" cx="2046.983" cy="815.324" rx="87.114" ry="87.114"/>
			
				<ellipse transform="matrix(0.1516 -0.9884 0.9884 0.1516 930.7922 2715.0635)" style="fill:none;stroke:#2EC6FC;stroke-width:2.8363;stroke-miterlimit:10;" cx="2046.983" cy="815.324" rx="80.865" ry="80.865"/>
			<polygon style="fill:#6ADB6A;" points="2084.327,763.155 2037.682,843.49 2037.272,844.195 2014.169,809.116 1998.861,819.207 
				2030.117,866.638 2037.785,866.42 2045.697,866.201 2100.179,772.356 			"/>
		</g>
		<rect x="2196.858" y="618.562" style="fill:#E5F0F8;" width="402.82" height="20.326"/>
		<rect x="2170.564" y="658.445" style="fill:#E5F0F8;" width="455.41" height="20.326"/>
		<g>
			<rect x="2181.94" y="717.077" style="fill:#E5F0F8;" width="665.861" height="10.528"/>
			<rect x="2181.94" y="740.323" style="fill:#E5F0F8;" width="665.861" height="10.528"/>
			<rect x="2181.94" y="763.568" style="fill:#E5F0F8;" width="665.861" height="10.528"/>
			<rect x="2181.94" y="786.814" style="fill:#E5F0F8;" width="665.861" height="10.528"/>
			<rect x="2181.94" y="810.06" style="fill:#E5F0F8;" width="665.861" height="10.528"/>
			<rect x="2181.94" y="833.305" style="fill:#E5F0F8;" width="665.861" height="10.528"/>
			<rect x="2181.94" y="856.551" style="fill:#E5F0F8;" width="665.861" height="10.528"/>
			<rect x="2181.94" y="879.797" style="fill:#E5F0F8;" width="665.861" height="10.528"/>
			<rect x="2181.94" y="903.043" style="fill:#E5F0F8;" width="665.861" height="10.528"/>
		</g>
		<g>
			<circle style="fill:#F9E181;" cx="2046.983" cy="1058.223" r="98.247"/>
			<circle style="fill:#FFFFFF;" cx="2046.983" cy="1058.223" r="87.114"/>
			<circle style="fill:none;stroke:#F9E181;stroke-width:2.8363;stroke-miterlimit:10;" cx="2046.983" cy="1058.223" r="80.865"/>
			<g>
				<g>
					
						<rect x="1984.897" y="1048.769" transform="matrix(0.7071 -0.7071 0.7071 0.7071 -148.7289 1757.3817)" style="fill:#F74242;" width="124.172" height="18.907"/>
				</g>
				<g>
					
						<rect x="2037.53" y="996.136" transform="matrix(0.7071 -0.7071 0.7071 0.7071 -148.7359 1757.3595)" style="fill:#F74242;" width="18.907" height="124.172"/>
				</g>
			</g>
		</g>
		<g>
			
				<ellipse transform="matrix(0.7071 -0.7071 0.7071 0.7071 -491.937 1899.5432)" style="fill:#F9E181;" cx="2046.983" cy="1543.592" rx="98.247" ry="98.247"/>
			
				<ellipse transform="matrix(0.7071 -0.7071 0.7071 0.7071 -491.937 1899.5432)" style="fill:#FFFFFF;" cx="2046.983" cy="1543.592" rx="87.114" ry="87.114"/>
			
				<ellipse transform="matrix(0.7071 -0.7071 0.7071 0.7071 -491.937 1899.5432)" style="fill:none;stroke:#F9E181;stroke-width:2.8363;stroke-miterlimit:10;" cx="2046.983" cy="1543.592" rx="80.865" ry="80.865"/>
			<g>
				<g>
					
						<rect x="1984.897" y="1534.139" transform="matrix(0.7071 -0.7071 0.7071 0.7071 -491.9356 1899.5526)" style="fill:#F74242;" width="124.172" height="18.907"/>
				</g>
				<g>
					
						<rect x="2037.53" y="1481.506" transform="matrix(0.7071 -0.7071 0.7071 0.7071 -491.9406 1899.5175)" style="fill:#F74242;" width="18.907" height="124.172"/>
				</g>
			</g>
		</g>
		<g>
			<rect x="2181.94" y="959.976" style="fill:#E5F0F8;" width="665.861" height="10.528"/>
			<rect x="2181.94" y="983.221" style="fill:#E5F0F8;" width="665.861" height="10.528"/>
			<rect x="2181.94" y="1006.467" style="fill:#E5F0F8;" width="665.861" height="10.528"/>
			<rect x="2181.94" y="1029.713" style="fill:#E5F0F8;" width="665.861" height="10.528"/>
			<rect x="2181.94" y="1052.958" style="fill:#E5F0F8;" width="665.861" height="10.528"/>
			<rect x="2181.94" y="1076.204" style="fill:#E5F0F8;" width="665.861" height="10.528"/>
			<rect x="2181.94" y="1099.45" style="fill:#E5F0F8;" width="665.861" height="10.528"/>
		</g>
		<g>
			<circle style="fill:#2EC6FC;" cx="2046.983" cy="1301.121" r="98.247"/>
			<circle style="fill:#FFFFFF;" cx="2046.983" cy="1301.121" r="87.114"/>
			<circle style="fill:none;stroke:#2EC6FC;stroke-width:2.8363;stroke-miterlimit:10;" cx="2046.983" cy="1301.121" r="80.865"/>
			<polygon style="fill:#6ADB6A;" points="2084.327,1248.952 2037.682,1329.287 2037.272,1329.992 2014.169,1294.914 
				1998.861,1305.004 2030.117,1352.435 2037.785,1352.217 2045.697,1351.998 2100.179,1258.153 			"/>
		</g>
		<g>
			<rect x="2181.94" y="1202.875" style="fill:#E5F0F8;" width="665.861" height="10.528"/>
			<rect x="2181.94" y="1226.12" style="fill:#E5F0F8;" width="665.861" height="10.528"/>
			<rect x="2181.94" y="1249.366" style="fill:#E5F0F8;" width="665.861" height="10.528"/>
			<rect x="2181.94" y="1272.611" style="fill:#E5F0F8;" width="665.861" height="10.528"/>
			<rect x="2181.94" y="1295.857" style="fill:#E5F0F8;" width="665.861" height="10.528"/>
			<rect x="2181.94" y="1319.103" style="fill:#E5F0F8;" width="665.861" height="10.528"/>
			<rect x="2181.94" y="1342.349" style="fill:#E5F0F8;" width="271.942" height="10.528"/>
		</g>
		<g>
			<rect x="2181.94" y="1445.773" style="fill:#E5F0F8;" width="665.861" height="10.528"/>
			<rect x="2181.94" y="1469.019" style="fill:#E5F0F8;" width="665.861" height="10.528"/>
			<rect x="2181.94" y="1492.265" style="fill:#E5F0F8;" width="665.861" height="10.528"/>
			<rect x="2181.94" y="1515.51" style="fill:#E5F0F8;" width="665.861" height="10.528"/>
			<rect x="2181.94" y="1538.756" style="fill:#E5F0F8;" width="665.861" height="10.528"/>
			<rect x="2181.94" y="1562.001" style="fill:#E5F0F8;" width="665.861" height="10.528"/>
		</g>
		<g>
			<circle style="fill:#2EC6FC;" cx="2046.983" cy="1786.918" r="98.247"/>
			<circle style="fill:#FFFFFF;" cx="2046.983" cy="1786.918" r="87.114"/>
			<circle style="fill:none;stroke:#2EC6FC;stroke-width:2.8363;stroke-miterlimit:10;" cx="2046.983" cy="1786.918" r="80.865"/>
			<polygon style="fill:#6ADB6A;" points="2084.327,1734.749 2037.682,1815.085 2037.272,1815.789 2014.169,1780.711 
				1998.861,1790.801 2030.117,1838.232 2037.785,1838.014 2045.697,1837.796 2100.179,1743.951 			"/>
		</g>
		<g>
			<rect x="2181.94" y="1688.672" style="fill:#E5F0F8;" width="665.861" height="10.528"/>
			<rect x="2181.94" y="1711.917" style="fill:#E5F0F8;" width="665.861" height="10.528"/>
			<rect x="2181.94" y="1735.163" style="fill:#E5F0F8;" width="665.861" height="10.528"/>
			<rect x="2181.94" y="1758.409" style="fill:#E5F0F8;" width="665.861" height="10.528"/>
			<rect x="2181.94" y="1781.655" style="fill:#E5F0F8;" width="665.861" height="10.528"/>
			<rect x="2181.94" y="1804.9" style="fill:#E5F0F8;" width="665.861" height="10.528"/>
			<rect x="2181.94" y="1828.146" style="fill:#E5F0F8;" width="665.861" height="10.528"/>
			<rect x="2181.94" y="1851.392" style="fill:#E5F0F8;" width="665.861" height="10.528"/>
			<rect x="2181.94" y="1874.637" style="fill:#E5F0F8;" width="665.861" height="10.528"/>
		</g>
	</g>
	<g>
		<polygon style="fill:#DE3C3C;" points="1465.961,2025.455 1440.422,2025.455 1487.936,1936.444 1514.062,1951.921 		"/>
		<polygon style="fill:#DE3C3C;" points="1793.608,2025.455 1819.147,2025.455 1771.632,1936.444 1745.506,1951.921 		"/>
		<path style="fill:#F74242;" d="M1716.951,1602.717L1716.951,1602.717c-4.796-2.665-6.538-8.77-3.873-13.565l123.228-221.724
			c2.665-4.795,8.77-6.538,13.565-3.873l0,0c4.796,2.665,6.539,8.77,3.873,13.565l-123.228,221.724
			C1727.851,1603.64,1721.746,1605.383,1716.951,1602.717z"/>
		<path style="fill:#F74242;" d="M1542.617,1602.717L1542.617,1602.717c4.796-2.665,6.539-8.77,3.873-13.565l-124.189-223.454
			c-2.665-4.796-8.77-6.539-13.565-3.873l0,0c-4.796,2.665-6.539,8.769-3.873,13.565l124.189,223.454
			C1531.718,1603.64,1537.822,1605.383,1542.617,1602.717z"/>
		
			<ellipse transform="matrix(0.7071 -0.7071 0.7071 0.7071 -744.4036 1658.4993)" style="fill:#F74242;" cx="1629.784" cy="1727.824" rx="269.631" ry="269.632"/>
		
			<ellipse transform="matrix(0.7071 -0.7071 0.7071 0.7071 -744.4037 1658.4995)" style="fill:#DE3C3C;" cx="1629.784" cy="1727.825" rx="241.944" ry="241.944"/>
		<path style="fill:#E5F0F8;" d="M1860.669,1727.832c0,63.85-25.912,121.666-67.817,163.45
			c-41.784,41.662-99.438,67.413-163.086,67.413c-127.497,0-230.862-103.366-230.862-230.863c0-79.114,39.8-148.955,100.491-190.536
			c37.087-25.467,81.988-40.326,130.371-40.326C1757.303,1496.97,1860.669,1600.336,1860.669,1727.832z"/>
		<path style="fill:#FFFFFF;" d="M1860.669,1727.832c0,63.85-25.912,121.666-67.817,163.45
			c-37.087,25.467-81.988,40.326-130.371,40.326c-127.497,0-230.863-103.366-230.863-230.863c0-63.849,25.912-121.626,67.777-163.45
			c37.087-25.467,81.988-40.326,130.371-40.326C1757.303,1496.97,1860.669,1600.336,1860.669,1727.832z"/>
		<path style="fill:#93ACBF;" d="M1629.784,1748.27c-11.083,0-20.446-9.363-20.446-20.445s9.363-20.447,20.446-20.447
			c11.083,0,20.446,9.365,20.446,20.447S1640.867,1748.27,1629.784,1748.27z"/>
		<g>
			<path style="fill:#93ACBF;" d="M1629.784,1727.825L1629.784,1727.825c-2.194,0-3.99-1.796-3.99-3.99v-182.215
				c0-2.195,1.796-3.99,3.99-3.99l0,0c2.195,0,3.99,1.796,3.99,3.99v182.215C1633.774,1726.029,1631.979,1727.825,1629.784,1727.825
				z"/>
			<circle style="fill:#93ACBF;" cx="1629.893" cy="1632.727" r="12.302"/>
			<path style="fill:#FFFFFF;" d="M1629.894,1639.492c-3.73,0-6.766-3.035-6.766-6.765s3.035-6.765,6.766-6.765
				c3.73,0,6.763,3.035,6.763,6.765S1633.623,1639.492,1629.894,1639.492z"/>
		</g>
		<g>
			<path style="fill:#93ACBF;" d="M1629.784,1727.825L1629.784,1727.825c0-2.195,1.796-3.99,3.99-3.99h126.628
				c2.195,0,3.99,1.795,3.99,3.99l0,0c0,2.194-1.796,3.99-3.99,3.99h-126.628C1631.58,1731.815,1629.784,1730.019,1629.784,1727.825
				z"/>
			<circle style="fill:#93ACBF;" cx="1697.088" cy="1727.934" r="12.302"/>
			<path style="fill:#FFFFFF;" d="M1690.323,1727.934c0-3.731,3.035-6.766,6.765-6.766c3.73,0,6.765,3.035,6.765,6.766
				c0,3.729-3.035,6.763-6.765,6.763C1693.359,1734.697,1690.323,1731.664,1690.323,1727.934z"/>
		</g>
		<path style="fill:#93ACBF;" d="M1629.784,1531.81L1629.784,1531.81c-1.166,0-2.12-0.954-2.12-2.12v-8.978
			c0-1.166,0.954-2.12,2.12-2.12l0,0c1.166,0,2.12,0.954,2.12,2.12v8.978C1631.904,1530.856,1630.95,1531.81,1629.784,1531.81z"/>
		<path style="fill:#93ACBF;" d="M1531.777,1558.071L1531.777,1558.071c-1.01,0.583-2.313,0.234-2.896-0.776l-4.489-7.775
			c-0.583-1.01-0.234-2.313,0.776-2.896l0,0c1.01-0.583,2.313-0.234,2.896,0.776l4.489,7.775
			C1533.136,1556.185,1532.786,1557.488,1531.777,1558.071z"/>
		<path style="fill:#93ACBF;" d="M1460.031,1629.818L1460.031,1629.818c-0.583,1.01-1.886,1.359-2.896,0.776l-7.775-4.489
			c-1.01-0.583-1.359-1.886-0.776-2.896l0,0c0.583-1.01,1.886-1.359,2.896-0.776l7.775,4.489
			C1460.264,1627.505,1460.614,1628.808,1460.031,1629.818z"/>
		<path style="fill:#93ACBF;" d="M1433.77,1727.825L1433.77,1727.825c0,1.166-0.954,2.12-2.12,2.12h-8.978
			c-1.166,0-2.12-0.954-2.12-2.12l0,0c0-1.166,0.954-2.12,2.12-2.12h8.978C1432.816,1725.705,1433.77,1726.659,1433.77,1727.825z"/>
		<path style="fill:#93ACBF;" d="M1460.031,1825.832L1460.031,1825.832c0.583,1.01,0.234,2.313-0.776,2.896l-7.775,4.489
			c-1.01,0.583-2.313,0.234-2.896-0.776h0c-0.583-1.01-0.234-2.313,0.776-2.896l7.775-4.489
			C1458.145,1824.473,1459.448,1824.823,1460.031,1825.832z"/>
		<path style="fill:#93ACBF;" d="M1531.777,1897.578L1531.777,1897.578c1.01,0.583,1.359,1.886,0.776,2.896l-4.489,7.775
			c-0.583,1.01-1.886,1.359-2.896,0.776l0,0c-1.01-0.583-1.359-1.886-0.776-2.896l4.489-7.775
			C1529.464,1897.345,1530.767,1896.996,1531.777,1897.578z"/>
		<path style="fill:#93ACBF;" d="M1629.784,1923.839L1629.784,1923.839c1.166,0,2.12,0.954,2.12,2.12v8.978
			c0,1.166-0.954,2.12-2.12,2.12h0c-1.166,0-2.12-0.954-2.12-2.12v-8.978C1627.665,1924.793,1628.619,1923.839,1629.784,1923.839z"
			/>
		<path style="fill:#93ACBF;" d="M1727.792,1897.578L1727.792,1897.578c1.01-0.583,2.313-0.234,2.896,0.776l4.489,7.775
			c0.583,1.01,0.234,2.313-0.776,2.896l0,0c-1.01,0.583-2.313,0.234-2.896-0.776l-4.489-7.775
			C1726.433,1899.464,1726.782,1898.161,1727.792,1897.578z"/>
		<path style="fill:#93ACBF;" d="M1799.538,1825.832L1799.538,1825.832c0.583-1.01,1.886-1.359,2.896-0.776l7.775,4.489
			c1.01,0.583,1.359,1.886,0.776,2.896l0,0c-0.583,1.01-1.886,1.359-2.896,0.776l-7.775-4.489
			C1799.304,1828.145,1798.955,1826.842,1799.538,1825.832z"/>
		<path style="fill:#93ACBF;" d="M1825.799,1727.825L1825.799,1727.825c0-1.166,0.954-2.12,2.12-2.12h8.978
			c1.166,0,2.12,0.954,2.12,2.12l0,0c0,1.166-0.954,2.12-2.12,2.12h-8.978C1826.753,1729.944,1825.799,1728.991,1825.799,1727.825z"
			/>
		<path style="fill:#93ACBF;" d="M1799.538,1629.818L1799.538,1629.818c-0.583-1.01-0.234-2.313,0.776-2.896l7.775-4.489
			c1.01-0.583,2.313-0.234,2.896,0.776l0,0c0.583,1.01,0.234,2.313-0.776,2.896l-7.775,4.489
			C1801.424,1631.176,1800.121,1630.827,1799.538,1629.818z"/>
		<path style="fill:#93ACBF;" d="M1727.791,1558.071L1727.791,1558.071c-1.01-0.583-1.359-1.886-0.776-2.896l4.489-7.775
			c0.583-1.01,1.886-1.359,2.896-0.776l0,0c1.01,0.583,1.359,1.886,0.776,2.896l-4.489,7.775
			C1730.104,1558.305,1728.801,1558.654,1727.791,1558.071z"/>
		<path style="fill:#F74242;" d="M1838.232,1384.571c-97.215-52.471-139.142,22.625-139.142,22.625l193.398,107.485
			C1892.487,1514.682,1928.984,1433.554,1838.232,1384.571z"/>
		<path style="fill:#DE3C3C;" d="M1892.487,1514.682c-2.342,4.214-47.548-16.44-100.971-46.131
			c-53.423-29.691-94.832-57.176-92.49-61.39c2.342-4.214,47.548,16.44,100.971,46.131
			C1853.42,1482.984,1894.829,1510.469,1892.487,1514.682z"/>
		<path style="fill:#F74242;" d="M1421.337,1384.571c97.215-52.471,139.142,22.625,139.142,22.625l-193.398,107.485
			C1367.081,1514.682,1330.584,1433.554,1421.337,1384.571z"/>
		<path style="fill:#DE3C3C;" d="M1367.081,1514.682c2.342,4.214,47.548-16.44,100.971-46.131
			c53.423-29.691,94.832-57.176,92.49-61.39c-2.342-4.214-47.548,16.44-100.971,46.131
			C1406.148,1482.984,1364.739,1510.469,1367.081,1514.682z"/>
		
			<path style="fill:none;stroke:#DE3C3C;stroke-width:15.628;stroke-linecap:round;stroke-linejoin:round;stroke-miterlimit:10;" d="
			M1853.274,1386.667l-23.602-12.709c-7.154-3.852-12.985-9.766-16.736-16.973l-31.566-60.657
			c-18.748-36.026-55.986-58.625-96.598-58.625h-56.94h-56.94c-40.612,0-77.85,22.6-96.598,58.625l-31.566,60.657
			c-3.751,7.208-9.582,13.121-16.736,16.973l-23.602,12.709"/>
	</g>
	<g>
		<path style="fill:#322A28;" d="M782.336,531.462h151.249c21.603,0,42.471,2.123,62.603,6.356
			c20.119,4.239,37.812,11.337,53.066,21.287c15.241,9.963,27.424,23.307,36.535,40.038c9.111,16.738,13.667,37.606,13.667,62.597
			c0,28.391-4.878,51.266-14.622,68.636c-9.743,17.377-22.881,30.818-39.4,40.355c-16.519,9.531-35.696,15.996-57.506,19.377
			c-21.836,3.401-44.6,5.085-68.32,5.085h-57.196v186.203h-80.077V531.462z M910.704,726.563c11.447,0,23.307-0.419,35.593-1.271
			c12.286-0.845,23.617-3.388,34.005-7.627c10.376-4.233,18.842-10.589,25.41-19.068c6.569-8.466,9.86-20.332,9.86-35.586
			c0-13.983-2.968-25.101-8.905-33.366c-5.936-8.259-13.563-14.615-22.881-19.061c-9.318-4.452-19.693-7.311-31.127-8.582
			c-11.447-1.271-22.468-1.904-33.05-1.904h-57.196v126.465H910.704z"/>
		<path style="fill:#322A28;" d="M1170.615,531.462h156.334c21.603,0,42.471,2.013,62.603,6.04
			c20.119,4.033,38.019,10.911,53.699,20.655c15.667,9.75,28.172,22.875,37.49,39.4c9.318,16.519,13.976,37.496,13.976,62.913
			c0,32.631-8.995,59.958-26.998,81.98c-18.016,22.036-43.749,35.38-77.212,40.038l119.464,198.908h-96.595l-104.223-190.649
			h-58.461v190.649h-80.077V531.462z M1312.972,722.111c11.434,0,22.881-0.523,34.315-1.587c11.434-1.052,21.926-3.594,31.463-7.627
			c9.524-4.02,17.254-10.169,23.191-18.429c5.923-8.259,8.892-19.797,8.892-34.631c0-13.131-2.762-23.726-8.259-31.779
			c-5.51-8.04-12.712-14.08-21.603-18.112c-8.905-4.02-18.751-6.672-29.553-7.943c-10.802-1.271-21.294-1.904-31.463-1.904h-69.262
			v122.012H1312.972z"/>
		<path style="fill:#322A28;" d="M1546.828,758.336c0-36.006,5.923-68.733,17.796-98.183c11.86-29.443,28.275-54.544,49.246-75.308
			c20.971-20.752,45.968-36.748,74.992-47.982c29.011-11.221,60.9-16.841,95.641-16.841c35.167-0.413,67.365,4.768,96.595,15.57
			c29.23,10.808,54.434,26.591,75.625,47.349c21.177,20.758,37.709,45.755,49.569,74.986s17.796,61.861,17.796,97.867
			c0,35.173-5.936,67.152-17.796,95.963c-11.86,28.811-28.391,53.595-49.569,74.353c-21.19,20.758-46.394,36.967-75.625,48.614
			c-29.23,11.647-61.429,17.687-96.595,18.112c-34.741,0-66.63-5.62-95.641-16.841c-29.024-11.221-54.021-27.107-74.992-47.665
			c-20.971-20.545-37.386-45.22-49.246-74.031C1552.751,825.488,1546.828,793.509,1546.828,758.336z M1630.711,753.251
			c0,24.152,3.704,46.394,11.124,66.726c7.408,20.339,17.887,37.922,31.45,52.75c13.563,14.835,29.759,26.482,48.627,34.947
			c18.842,8.485,39.916,12.712,63.223,12.712c23.294,0,44.484-4.226,63.558-12.712c19.061-8.466,35.36-20.113,48.924-34.947
			c13.563-14.828,24.042-32.411,31.463-52.75c7.408-20.332,11.124-42.574,11.124-66.726c0-22.449-3.717-43.42-11.124-62.913
			c-7.421-19.48-17.9-36.541-31.463-51.156c-13.563-14.622-29.863-26.056-48.924-34.321c-19.074-8.259-40.264-12.389-63.558-12.389
			c-23.307,0-44.381,4.13-63.223,12.389c-18.868,8.266-35.063,19.7-48.627,34.321c-13.563,14.615-24.042,31.676-31.45,51.156
			C1634.415,709.831,1630.711,730.802,1630.711,753.251z"/>
		<path style="fill:#322A28;" d="M2320.869,856.841c0,17.79-2.865,34.947-8.582,51.472s-14.196,31.037-25.423,43.529
			c-11.227,12.505-25.32,22.461-42.252,29.869c-16.957,7.408-36.651,11.124-59.106,11.124c-35.593,0-64.72-8.266-87.381-24.784
			c-22.675-16.525-37.606-42.787-44.807-78.806l74.992-17.79c2.542,14.834,8.582,26.688,18.106,35.586
			c9.537,8.898,21.293,13.344,35.27,13.344c22.881,0,38.458-7.724,46.717-23.197c8.259-15.46,12.389-36.748,12.389-63.868V531.462
			h80.077V856.841z"/>
		<path style="fill:#322A28;" d="M2418.097,531.462h298.046v72.45h-217.969v110.572h206.535v72.45h-206.535v122.012h229.416v72.45
			h-309.493V531.462z"/>
		<path style="fill:#322A28;" d="M3115.237,636.956c-16.532-17.796-32.521-29.65-47.982-35.586
			c-15.473-5.93-31.05-8.898-46.717-8.898c-23.307,0-44.381,4.13-63.223,12.389c-18.867,8.266-35.063,19.7-48.627,34.321
			c-13.563,14.615-24.042,31.676-31.45,51.156c-7.42,19.493-11.124,40.464-11.124,62.913c0,24.152,3.704,46.394,11.124,66.726
			c7.408,20.339,17.887,37.922,31.45,52.75c13.563,14.835,29.76,26.482,48.627,34.947c18.842,8.485,39.916,12.712,63.223,12.712
			c18.209,0,35.915-4.336,53.066-13.028c17.164-8.679,33.154-22.558,47.982-41.626l66.087,47.027
			c-20.326,27.966-45.116,48.298-74.347,61.009c-29.23,12.712-60.371,19.068-93.421,19.068c-34.741,0-66.63-5.62-95.641-16.841
			c-29.024-11.221-54.021-27.107-74.992-47.665c-20.971-20.545-37.386-45.22-49.246-74.031
			c-11.873-28.811-17.796-60.79-17.796-95.963c0-36.006,5.923-68.733,17.796-98.183c11.86-29.443,28.275-54.544,49.246-75.308
			c20.971-20.752,45.969-36.748,74.992-47.982c29.011-11.221,60.9-16.841,95.641-16.841c30.508,0,58.783,5.401,84.839,16.209
			c26.055,10.802,50.304,29.133,72.76,54.97L3115.237,636.956z"/>
		<path style="fill:#322A28;" d="M3333.851,603.912h-137.905v-72.45h355.874v72.45h-137.905v377.484h-80.064V603.912z"/>
		<path style="fill:#322A28;" d="M548.803,1187.191h122.019l120.109,315.21l121.373-315.21h120.754v449.934h-76.27v-373.67h-1.265
			l-136.64,373.67h-55.918l-136.628-373.67h-1.278v373.67h-76.257V1187.191z"/>
		<path style="fill:#322A28;" d="M1280.89,1187.191h69.275l193.823,449.934h-91.511l-41.942-102.951h-195.101l-40.677,102.951
			h-89.601L1280.89,1187.191z M1382.57,1465.537l-69.275-183.022l-70.54,183.022H1382.57z"/>
		<path style="fill:#322A28;" d="M1594.177,1187.191h106.132l217.969,334.271h1.278v-334.271h80.077v449.934h-101.68
			l-222.434-345.079h-1.265v345.079h-80.077V1187.191z"/>
		<path style="fill:#322A28;" d="M2245.567,1187.191h69.275l193.823,449.934h-91.511l-41.942-102.951h-195.101l-40.677,102.951
			h-89.601L2245.567,1187.191z M2347.248,1465.537l-69.275-183.022l-70.54,183.022H2347.248z"/>
		<path style="fill:#322A28;" d="M2958.58,1604.081c-55.505,29.656-117.566,44.484-186.196,44.484
			c-34.741,0-66.63-5.62-95.641-16.841c-29.024-11.221-54.021-27.107-74.992-47.665c-20.971-20.545-37.386-45.22-49.246-74.031
			c-11.873-28.811-17.796-60.79-17.796-95.963c0-36.005,5.923-68.733,17.796-98.183c11.86-29.443,28.275-54.544,49.246-75.308
			c20.971-20.752,45.968-36.748,74.992-47.982c29.011-11.221,60.9-16.841,95.641-16.841c34.315,0,66.513,4.13,96.595,12.395
			c30.082,8.259,56.977,22.984,80.709,44.168l-59.106,59.732c-14.402-13.976-31.876-24.784-52.421-32.405
			c-20.558-7.627-42.265-11.441-65.146-11.441c-23.307,0-44.381,4.13-63.223,12.389c-18.867,8.266-35.063,19.7-48.627,34.321
			c-13.563,14.615-24.042,31.676-31.45,51.156c-7.42,19.493-11.124,40.464-11.124,62.913c0,24.152,3.704,46.394,11.124,66.726
			c7.408,20.339,17.887,37.922,31.45,52.75c13.563,14.834,29.759,26.482,48.627,34.947c18.842,8.485,39.916,12.712,63.223,12.712
			c20.339,0,39.503-1.904,57.519-5.717c18.003-3.813,33.992-9.743,47.981-17.796v-106.126h-92.156v-72.45h172.22V1604.081z"/>
		<path style="fill:#322A28;" d="M3053.266,1187.191h298.046v72.45h-217.969v110.572h206.535v72.45h-206.535v122.012h229.416v72.45
			h-309.493V1187.191z"/>
		<path style="fill:#322A28;" d="M3441.558,1187.191h156.334c21.604,0,42.471,2.013,62.603,6.04
			c20.119,4.033,38.019,10.911,53.698,20.655c15.667,9.75,28.172,22.875,37.49,39.4c9.317,16.519,13.976,37.496,13.976,62.913
			c0,32.631-8.995,59.958-26.998,81.98c-18.016,22.036-43.749,35.38-77.212,40.038l119.464,198.908h-96.595l-104.222-190.649
			h-58.461v190.649h-80.077V1187.191z M3583.915,1377.84c11.434,0,22.881-0.523,34.315-1.587
			c11.434-1.052,21.926-3.594,31.463-7.627c9.524-4.02,17.254-10.169,23.191-18.429c5.924-8.259,8.892-19.797,8.892-34.631
			c0-13.131-2.761-23.726-8.259-31.779c-5.51-8.04-12.711-14.08-21.603-18.112c-8.905-4.02-18.751-6.672-29.553-7.943
			c-10.802-1.271-21.293-1.903-31.463-1.903h-69.262v122.012H3583.915z"/>
	</g>
	<g>
		<path style="fill:#E5F0F8;" d="M732.82,366.265c-4.991-3.497-10.473-6.056-16.187-7.678c-1.018,6.157-6.526,10.694-12.902,10.368
			c-6.376-0.325-11.379-5.383-11.765-11.612c-5.833,1.017-11.547,3.004-16.869,5.975c3.625,5.079,2.958,12.172-1.788,16.457
			c-4.746,4.285-11.87,4.227-16.553,0.103c-3.497,4.991-6.056,10.473-7.662,16.172c6.157,1.018,10.679,6.51,10.354,12.886
			c-0.326,6.376-5.399,11.394-11.628,11.779c1.032,5.849,3.019,11.563,5.99,16.884c5.065-3.641,12.174-2.988,16.473,1.774
			c4.285,4.746,4.225,11.9,0.087,16.568c4.991,3.497,10.473,6.056,16.172,7.662c1.018-6.157,6.526-10.694,12.902-10.368
			c6.376,0.326,11.379,5.383,11.765,11.612c5.833-1.017,11.547-3.005,16.868-5.975c-3.625-5.079-2.957-12.172,1.788-16.457
			c4.746-4.285,11.87-4.227,16.553-0.103c3.497-4.991,6.056-10.473,7.662-16.172c-6.157-1.018-10.679-6.51-10.354-12.886
			c0.326-6.376,5.399-11.394,11.628-11.779c-1.018-5.833-3.005-11.547-5.975-16.868c-5.095,3.64-12.188,2.972-16.473-1.774
			C728.608,378.071,728.666,370.947,732.82,366.265z M721.203,393.4c9.771,10.822,8.934,27.526-1.905,37.312
			c-10.838,9.786-27.541,8.918-37.312-1.905c-9.786-10.838-8.948-27.542,1.89-37.328C694.715,381.694,711.418,382.562,721.203,393.4
			z"/>
		<path style="fill:#E5F0F8;" d="M678.095,531.432c-7.159,14.453-24.682,20.385-39.156,13.215
			c-14.474-7.169-20.374-24.704-13.215-39.156c7.169-14.474,24.693-20.406,39.167-13.236
			C679.364,499.424,685.264,516.958,678.095,531.432z M710.732,532.347c1.568-6.556,1.97-13.236,1.315-19.774
			c-6.748,1.457-13.654-2.364-15.913-9.055c-2.258-6.692,0.91-13.895,7.161-16.825c-3.419-5.587-7.787-10.657-13.007-14.922
			c-3.75,5.795-11.318,7.993-17.656,4.853c-6.338-3.139-9.176-10.491-6.838-16.986c-6.556-1.568-13.236-1.97-19.752-1.304
			c1.457,6.748-2.353,13.633-9.045,15.891c-6.692,2.258-13.916-0.92-16.846-7.171c-5.597,3.441-10.667,7.809-14.933,13.028
			c5.806,3.729,8.025,11.307,4.875,17.667c-3.139,6.338-10.523,9.186-17.008,6.828c-1.568,6.556-1.97,13.236-1.305,19.752
			c6.748-1.457,13.654,2.364,15.913,9.055c2.258,6.691-0.91,13.895-7.161,16.825c3.419,5.587,7.787,10.657,13.007,14.922
			c3.75-5.795,11.318-7.992,17.656-4.853c6.338,3.139,9.176,10.491,6.838,16.986c6.556,1.568,13.236,1.97,19.752,1.305
			c-1.457-6.748,2.353-13.633,9.045-15.891c6.691-2.258,13.916,0.92,16.846,7.171c5.586-3.419,10.656-7.787,14.922-13.007
			c-5.816-3.761-8.014-11.329-4.875-17.667C696.875,532.815,704.227,529.978,710.732,532.347z"/>
	</g>
	<g>
		<polygon style="fill:#0775EF;" points="193.348,855.008 209.543,843.662 392.267,949.911 376.072,961.257 		"/>
		<polygon style="fill:#DE3C3C;" points="404.201,894.118 420.396,882.772 388.753,849.919 		"/>
		<polygon style="fill:#DE3C3C;" points="547.897,853.846 564.092,842.5 553.914,807.904 538.46,830.875 		"/>
		<polygon style="fill:#40A87B;" points="696.972,712.635 713.166,701.289 706.68,759.451 		"/>
		<path style="fill:#40A87B;" d="M787.24,883.786l-189.117,24.83c-2.759-21.432-13.256-40.441-28.531-54.235l127.379-141.745
			C745.319,756.104,778.425,816.16,787.24,883.786z"/>
		<path style="fill:#DE3C3C;" d="M675.276,712.101L547.897,853.846c-15.678-14.063-36.403-22.609-59.08-22.609
			c-39.936,0-73.682,26.478-84.616,62.882l-182.623-54.975c34.62-114.795,141.308-198.638,267.239-198.638
			C560.413,640.505,625.785,667.589,675.276,712.101z"/>
		<path style="fill:#F2BB16;" d="M784.052,951.809c0,153.891-125.192,279.082-279.116,279.082V1040.16
			c48.818,0,88.384-39.566,88.384-88.351c0-3.903-0.269-7.772-0.774-11.54l189.117-24.83
			C783.244,927.35,784.052,939.495,784.052,951.809z"/>
		<path style="fill:#088CFC;" d="M476.698,1046.079v190.731c-125.562,0-232.014-83.338-266.937-197.595L392.183,983.5
			C403.184,1019.702,436.863,1046.079,476.698,1046.079z"/>
		<path style="fill:#0775EF;" d="M376.072,961.257l-182.421,55.716c-7.906-25.772-12.146-53.159-12.146-81.487
			c0-27.959,4.138-55.009,11.843-80.478l182.623,54.975c-2.422,8.075-3.734,16.621-3.734,25.503
			C372.237,944.435,373.582,953.115,376.072,961.257z"/>
		<polygon style="fill:#F2BB16;" points="592.546,940.269 608.741,928.923 632.953,990.611 		"/>
		<path style="fill:#F2BB16;" d="M504.936,1040.16l16.195-11.346l28.92,13.792c0,0-34.288,11.107-34.771,11.59
			C514.797,1054.68,504.936,1040.16,504.936,1040.16z"/>
		<polygon style="fill:#40A87B;" points="803.435,872.439 787.24,883.786 756.26,864.407 		"/>
		<polygon style="fill:#088CFC;" points="209.761,1039.215 225.956,1027.869 492.893,1225.464 476.698,1236.811 		"/>
		<path style="fill:#F74242;" d="M691.471,700.755L564.092,842.5c-15.678-14.063-36.404-22.609-59.08-22.609
			c-39.936,0-73.682,26.478-84.616,62.882l-182.623-54.975c34.62-114.796,141.308-198.638,267.239-198.638
			C576.608,629.159,641.979,656.243,691.471,700.755z"/>
		<path style="fill:#6ADB6A;" d="M803.435,872.439l-189.117,24.83c-2.759-21.432-13.256-40.441-28.531-54.235l127.378-141.745
			C761.514,744.758,794.62,804.814,803.435,872.439z"/>
		<path style="fill:#F9E181;" d="M800.246,940.463c0,153.891-125.192,279.082-279.116,279.082v-190.731
			c48.818,0,88.384-39.566,88.384-88.351c0-3.903-0.269-7.772-0.774-11.54l189.117-24.83
			C799.439,916.004,800.246,928.149,800.246,940.463z"/>
		<path style="fill:#2EC6FC;" d="M492.893,1034.733v190.731c-125.562,0-232.014-83.338-266.937-197.595l182.421-55.716
			C419.379,1008.356,453.057,1034.733,492.893,1034.733z"/>
		<path style="fill:#088CFC;" d="M392.267,949.911l-182.421,55.716c-7.907-25.772-12.146-53.159-12.146-81.487
			c0-27.959,4.138-55.009,11.843-80.478l182.623,54.975c-2.422,8.075-3.734,16.62-3.734,25.503
			C388.431,933.089,389.777,941.769,392.267,949.911z"/>
	</g>
	<g>
		<path style="fill:#E7888B;" d="M1192.893,1446.209L1192.893,1446.209c-14.669,7.895-33.132,2.353-41.027-12.317l-59.346-110.266
			c-7.895-14.669-2.353-33.132,12.317-41.027l0,0c14.67-7.895,33.132-2.353,41.027,12.317l59.346,110.266
			C1213.105,1419.852,1207.563,1438.314,1192.893,1446.209z"/>
		<path style="fill:#FDAE97;" d="M1150.524,1425.951c-1.597-16.663,9.13-31.45,23.839-32.859l128.386,4.753
			c4.315-0.782,9.224-1.863,13.179-3.252c9.196-3.23,35.208-9.059,36.02-5.307c0.812,3.752-16.201,11.359-14.568,12.655
			c1.632,1.296,15.415-1.37,21.201-2.973c5.786-1.603,17.636-7.038,20.401-4.875c2.765,2.163,0.736,6.918,0.736,6.918
			s4.268-2.627,5.394,0.353c1.126,2.98-4.532,8.688-4.532,8.688s2.226-1.704,2.651,1.891c0.426,3.595-10.907,9.196-10.907,9.196
			s2.525-0.231,2.476,2.54c-0.049,2.771-15.749,8.483-27.93,8.875c-10.874,0.35-36.803-1.688-42.247-2.13l-124.454,23.261
			C1165.462,1455.094,1152.121,1442.614,1150.524,1425.951z"/>
		<path style="fill:#F9E181;" d="M1041.511,1189.277c0,0-15.574,11.71-11.81,35.359s-33.751,36.27-33.751,36.27
			s21.08,129.481,92.101,84.849c71.021-44.632-5.784-73.578-5.784-73.578L1041.511,1189.277z"/>
		<path style="fill:#0775EF;" d="M1058.015,1482.897c-19.831,25.965-27.302,79.796-14.658,137.785
			c12.645,57.989,16.916,96.111,16.916,96.111c3.296,26.843,27.729,45.932,54.572,42.636c26.843-3.296,45.932-27.729,42.636-54.572
			l-20.163-221.96H1058.015z"/>
		<path style="fill:#E5F0F8;" d="M1053.643,1270.036l-53.008,24.007c0,0,11.786,136.457,13.004,151.384
			c1.219,14.927-3.351,37.469-3.351,37.469h127.031c0,0-1.523-73.111,7.006-93.521c5.778-13.827,9.748-22.238,6.397-38.079
			c-3.351-15.841-27.87-43.844-23.91-71.261l-27.653-8.856L1053.643,1270.036z"/>
		<path style="fill:#F9E181;" d="M1108.129,1189.699c0,0,7.905-17.447-9.206-23.497L1108.129,1189.699z"/>
		<path style="fill:#FDAE97;" d="M1053.418,1270.028l0.036,0.036c0.569,0.997,10.185,17.2,28.382,15.847
			c16.096-1.211,17.307-14.743,17.307-14.743v-61.642h-39.172L1053.418,1270.028z"/>
		<polygon style="fill:#E89780;" points="1099.142,1264.147 1071.813,1234.428 1099.16,1244.701 		"/>
		<path style="fill:#FDAE97;" d="M1072.668,1238.393c12.47,8.03,27.532,8.614,36.858,2.861c9.333-5.718,8.391-19.779,6.033-28.775
			c-0.008-0.035-0.008-0.035-0.016-0.07c-0.493-1.86-1.192-4.477-1.97-7.441c-3.021-11.621-7.485-28.83-7.485-28.83
			c-1.892-9.075-26.838-30.308-52.248-4.903C1028.437,1196.675,1060.198,1230.362,1072.668,1238.393z"/>
		<path style="fill:#F9E181;" d="M1105.416,1172.473c0,0-0.758,10.756-16.128,17.358c-15.37,6.602-30.123,17.042-28.946,33.018
			c1.178,15.976-4.628,24.734-4.628,24.734s-1.464-19.91-10.8-37.089c-3.621-6.664-6.477-20.534,0.429-32.123
			C1056.24,1160.084,1083.034,1146.922,1105.416,1172.473z"/>
		<path style="fill:#FDAE97;" d="M1063.058,1219.532c3.056,4.923,3.844,8.37-0.021,10.769c-3.865,2.399-10.229,1.544-13.285-3.378
			c-3.056-4.923-2.4-10.858,1.465-13.257C1055.083,1211.266,1060.002,1214.609,1063.058,1219.532z"/>
		
			<path style="fill:none;stroke:#E89780;stroke-width:0.7196;stroke-linecap:round;stroke-linejoin:round;stroke-miterlimit:10;" d="
			M1054.424,1222.773c3.22-1.414,5.918,0.076,5.918,0.076c-1.967-5.556-8.623-3.603-8.623-3.603"/>
		<path style="fill:#332B27;" d="M1086.073,1205.773c0.514,2.179,2.073,3.675,3.483,3.343s2.135-2.368,1.621-4.547
			c-0.514-2.179-2.073-3.675-3.483-3.343S1085.558,1203.594,1086.073,1205.773z"/>
		<path style="fill:#332B27;" d="M1104.288,1199.69c0.514,2.179,2.073,3.675,3.483,3.343c1.409-0.333,2.135-2.368,1.621-4.547
			c-0.514-2.179-2.073-3.675-3.483-3.343C1104.5,1195.476,1103.774,1197.511,1104.288,1199.69z"/>
		<path style="fill:#0775EF;" d="M1173.828,1916.839h-99.736l-14.618-200.393l-0.378-5.789c0-27.495,22.654-49.658,50.339-48.826
			c24.962,0.719,45.876,21.028,47.351,45.99L1173.828,1916.839z"/>
		<path style="fill:#E7888B;" d="M982.491,1474.166L982.491,1474.166c-16.326-3.317-26.969-19.389-23.651-35.714l24.935-122.714
			c3.317-16.326,19.389-26.969,35.714-23.651v0c16.326,3.317,26.969,19.389,23.652,35.714l-24.935,122.714
			C1014.888,1466.84,998.817,1477.483,982.491,1474.166z"/>
		<path style="fill:none;stroke:#332B27;stroke-width:1.0683;stroke-miterlimit:10;" d="M1080.077,1202.566
			c0,0,3.093-6.462,8.654-5.7"/>
		<path style="fill:none;stroke:#332B27;stroke-width:1.0683;stroke-miterlimit:10;" d="M1102.987,1192.475
			c0,0,3.037-1.342,7.232,1.301"/>
		<path style="fill:#088CFC;" d="M1048.352,1916.839H941.059l21.101-208.703l0.076-0.908c1.763-25.376,23.229-45.42,49.409-45.42
			c27.369,0,49.524,21.859,49.524,48.861c0,1.513-0.077,2.988-0.23,4.425L1048.352,1916.839z"/>
		<path style="fill:none;stroke:#332B27;stroke-width:1.0683;stroke-miterlimit:10;" d="M1097.78,1201.555
			c0,0,2.797,10.736,9.443,10.562c0,0-1.583,2.31-3.93,3.66"/>
		<path style="fill:#088CFC;" d="M1010.288,1482.897c-25.163,20.839-42.34,65.304-43.065,124.651
			c-0.724,59.348-5.138,97.453-5.138,97.453c-2.827,26.897,16.685,50.993,43.582,53.82c26.897,2.827,50.993-16.685,53.82-43.582
			l38.003-232.342H1010.288z"/>
		<path style="fill:#E7888B;" d="M1049.784,1271.784c0,0,31.098,41.453,37.069,85.218c5.971,43.765-13.339,92.42-18.535,139.139
			c-5.195,46.72-31.189,239.222-31.189,239.222h-86.48c0,0-4.315-128.441,11.164-180.858c15.479-52.417,38.821-260.46,38.821-260.46
			L1049.784,1271.784z"/>
		<path style="fill:none;stroke:#332B27;stroke-width:1.0683;stroke-miterlimit:10;" d="M1106.487,1224.516
			c0,0-6.339,4.629-13.234-1.938"/>
		<path style="fill:#E89780;" d="M1076.528,1215.271c-0.156,2.328,3.417,4.463,7.981,4.769c4.564,0.307,8.391-1.332,8.547-3.66
			c0.156-2.327-3.417-4.463-7.981-4.769C1080.511,1211.305,1076.684,1212.943,1076.528,1215.271z"/>
		<path style="fill:#E89780;" d="M1110.762,1211.115c0.687,1.269,2.535,1.692,4.782,1.295c-0.493-1.86-1.192-4.477-1.97-7.441
			C1111.089,1207.062,1109.857,1209.53,1110.762,1211.115z"/>
		
			<ellipse transform="matrix(0.5901 -0.8073 0.8073 0.5901 -522.1395 1319.1686)" style="fill:#F9E181;" cx="1038.016" cy="1173.775" rx="25.254" ry="16.887"/>
		<path style="fill:none;stroke:#FFFFFF;stroke-width:0.9455;stroke-miterlimit:10;" d="M1064.804,1230.365
			c0.452,2.007-0.808,4-2.814,4.453c-2.007,0.453-4-0.808-4.453-2.814c-0.452-2.007,0.808-4,2.814-4.453
			C1062.358,1227.098,1064.351,1228.359,1064.804,1230.365z"/>
		<polygon style="fill:#FDAE97;" points="1046.436,2024.832 956.423,2024.832 956.839,2016.133 958.201,1988.638 957.706,1916.839 
			1022.921,1916.839 1006.309,1988.638 		"/>
		<polygon style="fill:#FDAE97;" points="1199.307,2024.832 1104.287,2024.832 1104.149,2016.133 1102.373,1988.638 
			1094.85,1916.839 1160.856,1916.839 1159.179,1988.638 1189.662,2016.133 		"/>
		<path style="fill:#322A28;" d="M956.416,2024.834h90.016c-0.199-3.504-0.851-6.909-1.952-10.113
			c-5.157-15.22-19.525-26.084-36.347-26.084h-49.914l-1.352,26.084l-0.05,1.402L956.416,2024.834z"/>
		<path style="fill:#322A28;" d="M1102.355,1988.637l1.526,26.084l0.25,1.402l0.176,8.711h95.023l-0.4-2.403
			c-0.451-2.703-1.101-5.257-2.053-7.71c-2.403-6.508-6.457-12.116-11.614-16.472c-7.06-6.008-16.221-9.612-26.085-9.612H1102.355z"
			/>
		
			<line style="fill:none;stroke:#FFFFFF;stroke-width:0.9455;stroke-miterlimit:10;" x1="1009.443" y1="1999.31" x2="1025.698" y2="1999.31"/>
		
			<line style="fill:none;stroke:#FFFFFF;stroke-width:0.9455;stroke-miterlimit:10;" x1="1014.606" y1="2005.62" x2="1030.861" y2="2005.62"/>
		
			<line style="fill:none;stroke:#FFFFFF;stroke-width:0.9455;stroke-miterlimit:10;" x1="1165.343" y1="1999.31" x2="1181.598" y2="1999.31"/>
		
			<line style="fill:none;stroke:#FFFFFF;stroke-width:0.9455;stroke-miterlimit:10;" x1="1170.506" y1="2005.62" x2="1186.761" y2="2005.62"/>
		<circle style="fill:#FFFFFF;" cx="975.683" cy="2003.517" r="6.884"/>
		<circle style="fill:#FFFFFF;" cx="1128.336" cy="2003.517" r="6.884"/>
		<path style="fill:#E7888B;" d="M1105.416,1273.183c0,0,13.647,33.416,15.885,80.668s22.489,381.511,22.489,381.511h41.337
			c0,0-45.799-294.094-39.855-324.133c5.944-30.039,17.867-47.59,12.58-66.153c-5.286-18.563-31.039-65.04-31.039-65.04
			L1105.416,1273.183z"/>
		<path style="fill:none;stroke:#322A28;stroke-width:1.4392;stroke-miterlimit:10;" d="M1142.756,1394.114
			c0,0,9.314-20.386,9.024-35.714c-0.29-15.328-10.773-28.691-10.773-28.691"/>
		<path style="fill:#FFFFFF;" d="M1103.881,2014.721l0.426,10.113h95.023l-0.4-2.403c-0.451-2.703-1.101-5.257-2.053-7.71H1103.881z
			"/>
		<path style="fill:#FFFFFF;" d="M956.416,2024.834h90.016c-0.199-3.504-0.851-6.909-1.952-10.113h-87.613l-0.05,1.402
			L956.416,2024.834z"/>
		<polygon style="fill:#E89780;" points="1018.073,1937.79 957.737,1921.297 957.706,1916.839 1022.921,1916.839 		"/>
		<polygon style="fill:#E89780;" points="1160.366,1937.79 1094.85,1922.564 1094.85,1916.839 1160.856,1916.839 		"/>
		<path style="fill:#E7888B;" d="M1303.987,1394.185l2.437,56.214c0,0-112.072,32.736-142.88,0.947
			c-30.808-31.789-1.343-64.446,20.865-63.7C1206.617,1388.392,1303.987,1394.185,1303.987,1394.185z"/>
		<path style="fill:#FDAE97;" d="M1119.36,1612.458c1.911-2.549-2.596-4.742-2.596-4.742s5.102-0.839,5.444-4.333
			c0.342-3.494-10.601-10.579-15.058-14.603c-4.457-4.023-14.1-14.225-13.882-16.298c0.218-2.073,15.764,8.204,18.495,5.506
			c2.731-2.698-16.142-21.524-23.801-27.552c-3.294-2.593-6.839-6.156-9.814-9.378l-64.858-110.901
			c-9.08-11.657-27.313-12.778-40.519-2.492c-13.206,10.287-16.583,28.24-7.503,39.897l86.392,92.555
			c2.547,4.832,14.737,27.808,20.865,36.797c6.865,10.069,20.107,20.256,22.472,18.81c2.365-1.445,0.815-3.452,0.815-3.452
			s10.806,6.56,13.611,4.272c2.806-2.287,0.174-3.251,0.174-3.251S1117.449,1615.007,1119.36,1612.458z"/>
		<path style="fill:#E7888B;" d="M1082.921,1534.778l-39.711,30.617c0,0-74.853-77.248-82.786-102.837
			c-7.932-25.589,4.814-32.342,14.347-38.305c9.533-5.963,28.567-9.573,38.52,3.48
			C1023.244,1440.787,1082.921,1534.778,1082.921,1534.778z"/>
		<polyline style="fill:none;stroke:#322A28;stroke-width:1.4392;stroke-miterlimit:10;" points="1036.473,1368.11 
			1019.832,1440.35 1064.347,1508.855 		"/>
	</g>
	<g>
		<rect x="3572.756" y="882.861" style="fill:#E5F0F8;" width="27.562" height="75.268"/>
		<rect x="3616.409" y="844.148" style="fill:#E5F0F8;" width="27.562" height="113.982"/>
		<rect x="3660.063" y="786.507" style="fill:#E5F0F8;" width="27.562" height="171.623"/>
		<rect x="3703.715" y="822.066" style="fill:#E5F0F8;" width="27.562" height="136.064"/>
		<rect x="3747.368" y="837.063" style="fill:#E5F0F8;" width="27.562" height="121.066"/>
		<rect x="3791.021" y="807.593" style="fill:#E5F0F8;" width="27.562" height="150.537"/>
		<rect x="3834.674" y="774.096" style="fill:#E5F0F8;" width="27.562" height="184.033"/>
	</g>
	<path style="fill:#E5F0F8;" d="M1048.778,904.698c-10.22-14.601-27.541-23.82-46.87-22.714c-0.586,0.033-1.184,0.079-1.769,0.124
		c-26.345,2.359-47.21,24.141-48.464,50.564c-0.481,10.352,1.972,20.073,6.579,28.407c2.221,4.009,4.927,7.694,8.053,10.982l0,0.012
		c2.469,2.577,5.178,4.918,8.103,6.963c7.109,4.97,11.568,12.819,12.594,21.356l-2.468,0.037c-0.708,0.01-1.363,0.313-1.82,0.784
		c-0.084,0.087-0.156,0.185-0.24,0.284c-0.312,0.432-0.499,0.972-0.49,1.558c0.021,1.429,1.199,2.583,2.627,2.562
		c-0.708,0.011-1.363,0.313-1.82,0.784c-0.048,0.05-0.084,0.099-0.132,0.149c-0.384,0.47-0.607,1.059-0.598,1.694
		c0.021,1.429,1.199,2.583,2.628,2.562c-0.708,0.011-1.363,0.313-1.82,0.797c-0.072,0.074-0.144,0.161-0.216,0.247
		c-0.323,0.444-0.523,1.009-0.514,1.595c0.021,1.416,1.198,2.571,2.627,2.55c-0.708,0.01-1.363,0.313-1.82,0.797
		c-0.036,0.037-0.06,0.062-0.084,0.099c-0.409,0.458-0.656,1.072-0.646,1.744c0.021,1.429,1.198,2.571,2.627,2.55l2.674-0.04
		c0.034,0.636,0.088,1.268,0.187,1.89c0.356,2.158,1.111,4.177,2.178,5.989c0,0,0,0,0,0c0.201,0.342,0.414,0.676,0.638,1.003
		c0.112,0.163,0.231,0.319,0.348,0.478c0.156,0.213,0.315,0.422,0.48,0.627c0.121,0.15,0.243,0.298,0.369,0.444
		c0.2,0.232,0.407,0.456,0.618,0.677c0.099,0.103,0.192,0.209,0.293,0.31c0.306,0.305,0.625,0.596,0.954,0.877
		c0.114,0.098,0.233,0.19,0.349,0.285c0.243,0.198,0.491,0.39,0.745,0.575c0.129,0.094,0.258,0.187,0.39,0.278
		c0.301,0.207,0.609,0.403,0.923,0.591c0.078,0.047,0.152,0.097,0.231,0.143c0.387,0.224,0.786,0.43,1.192,0.624
		c0.126,0.06,0.254,0.115,0.381,0.172c0.304,0.137,0.613,0.265,0.926,0.385c0.138,0.053,0.276,0.106,0.416,0.155
		c0.393,0.138,0.791,0.265,1.195,0.375c0.046,0.013,0.091,0.029,0.138,0.041c0.45,0.119,0.908,0.215,1.37,0.298
		c0.136,0.024,0.273,0.043,0.409,0.064c0.35,0.054,0.703,0.098,1.06,0.131c0.142,0.013,0.283,0.028,0.426,0.037
		c0.482,0.033,0.968,0.052,1.46,0.045l2.918-0.043c4.823-0.072,9.165-2.091,12.268-5.3c2.55-2.615,4.27-6.024,4.788-9.817
		c0.04-0.327,0.069-0.657,0.09-0.988c0.021-0.296,0.033-0.595,0.04-0.893c0-0.004,0-0.009,0.001-0.013l2.43-0.036
		c0.708-0.011,1.363-0.313,1.82-0.784c0.469-0.483,0.753-1.123,0.742-1.843c-0.01-0.672-0.276-1.278-0.71-1.724
		c-0.472-0.53-1.173-0.85-1.93-0.838c0.708-0.011,1.363-0.313,1.82-0.784c0.469-0.483,0.753-1.135,0.742-1.843
		c-0.009-0.586-0.225-1.145-0.573-1.579c-0.485-0.603-1.236-0.995-2.067-0.983c0.708-0.01,1.363-0.313,1.82-0.797
		c0.469-0.471,0.753-1.135,0.742-1.843c-0.009-0.635-0.25-1.218-0.66-1.676c-0.484-0.542-1.198-0.886-1.979-0.874
		c0.708-0.011,1.363-0.313,1.82-0.797c0.469-0.471,0.753-1.123,0.742-1.843c-0.009-0.586-0.212-1.12-0.548-1.543
		c-0.486-0.628-1.249-1.019-2.092-1.007l-2.455,0.037c0.774-8.564,5.005-16.544,11.951-21.734
		c13.262-9.895,21.757-25.789,21.492-43.603C1058.24,923.401,1054.705,913.146,1048.778,904.698z"/>
	<g>
		<path style="fill:#BBDBF3;" d="M2401.624,1683.915l759.429,23.268c56.142,1.72,109.149,26.286,146.75,68.013l193.474,214.698
			c7.959,8.832,2.924,22.971-8.826,24.784l-12.257,1.892c-13.113,2.024-26.313-3.075-34.66-13.389l-153.341-189.468
			c-39.07-48.275-97.832-76.352-159.936-76.419l-773.371-0.833L2401.624,1683.915z"/>
		<path style="fill:#BBDBF3;" d="M3433.792,1683.915l-759.429,23.268c-56.142,1.72-109.149,26.286-146.75,68.013l-193.474,214.698
			c-7.959,8.832-2.924,22.971,8.826,24.784l12.257,1.892c13.113,2.024,26.313-3.075,34.66-13.389l153.341-189.468
			c39.07-48.275,97.832-76.352,159.936-76.419l773.371-0.833L3433.792,1683.915z"/>
		<path style="fill:#93ACBF;" d="M3536.475,1694.676c-18.067-3.012-57.44-11.393-89.545-30.935
			c-43.163-26.273-131.367-58.177-214.879-55.362c-83.511,2.815-133.712,17.359-167.493,43.163
			c-33.78,25.804-41.756,28.15-70.375,23.458c-28.619-4.692-76.475-4.692-76.475-4.692s-47.855,0-76.474,4.692
			c-28.619,4.692-36.595,2.346-70.375-23.458c-33.78-25.804-83.981-40.348-167.493-43.163
			c-83.512-2.815-171.715,29.088-214.878,55.362c-32.105,19.542-71.478,27.923-89.545,30.935c-5.737,0.956-9.918,5.931-9.918,11.748
			v18.882c0,5.987,4.432,11.092,10.375,11.816c13.44,1.637,36.285,7.272,45.925,26.552c14.075,28.15,21.582,118.23,77.882,180.16
			s125.737,98.525,240.214,72.252c114.477-26.273,156.702-127.614,172.654-176.407c15.952-48.793,16.421-80.697,16.421-80.697
			s-16.421-15.482-7.976-30.496c8.445-15.013,73.19-15.483,73.19-15.483s64.745,0.469,73.19,15.483
			c8.445,15.014-7.976,30.496-7.976,30.496s0.469,31.903,16.421,80.697c15.952,48.793,58.177,150.134,172.654,176.407
			c114.477,26.274,183.914-10.322,240.214-72.252c56.3-61.93,63.807-152.01,77.882-180.16c9.64-19.28,32.485-24.915,45.925-26.552
			c5.944-0.724,10.375-5.829,10.375-11.816v-18.882C3546.393,1700.607,3542.212,1695.632,3536.475,1694.676z"/>
		<g>
			<defs>
				<path id="SVGID_1_" d="M2611.498,1622.923c62.555,0.258,168.9,32.529,195.174,112.6c26.273,80.071-6.256,261.483-195.174,270.24
					c-188.918,8.758-236.46-197.676-208.936-267.738C2430.087,1667.963,2486.074,1622.407,2611.498,1622.923z"/>
			</defs>
			<use xlink:href="#SVGID_1_"  style="overflow:visible;fill:#E5F0F8;"/>
			<clipPath id="SVGID_00000039827830008851110520000015003984911142030523_">
				<use xlink:href="#SVGID_1_"  style="overflow:visible;"/>
			</clipPath>
			<g style="clip-path:url(#SVGID_00000039827830008851110520000015003984911142030523_);">
				<polygon style="fill:#BBDBF3;" points="2556.405,1688.638 2524.338,1736.602 2358.902,1736.44 2401.604,1683.917 				"/>
				<polygon style="fill:#BBDBF3;" points="2644.141,1691.35 2629.274,1713.597 2613.811,1736.711 2583.046,1736.711 
					2588.2,1729.006 2613.973,1690.428 				"/>
				<path style="fill:#6DA8C6;" d="M2346.206,2003.176l20.076,13.402c-3.635,0.542-7.325,0.542-11.069,0l-12.263-1.899
					c-11.72-1.791-16.766-15.952-8.79-24.796l81.063-89.961L2346.206,2003.176z"/>
				<path style="fill:#BBDBF3;" d="M2629.274,1713.597l-15.464,23.114l-22.572,33.749v0.054
					c-18.014,11.611-34.237,26.153-48.019,43.19l-66.901,82.636l106.727-159.63l5.155-7.705
					C2601.277,1722.386,2615.059,1717.232,2629.274,1713.597z"/>
				<path style="fill:#BBDBF3;" d="M3476.527,1736.44l-215.299,0.217h-0.109l-343.404,0.434h-15.301l-199.239,0.217
					c-18.665,0-37.113,2.55-54.747,7.488l5.372-8.03l19.75-29.517c0.271-0.054,0.542-0.054,0.814-0.054l242.7-7.433h0.651
					l516.056-15.844L3476.527,1736.44z"/>
				<polygon style="fill:#FFFFFF;" points="2711.151,1545.068 2613.973,1690.428 2556.405,1688.638 2670.511,1517.939 				"/>
				<path style="fill:#F2FDFF;" d="M2476.21,1896.503l-89.419,133.802l-20.51-13.727c9.115-1.302,17.58-6.023,23.603-13.402
					L2476.21,1896.503z"/>
				<path style="fill:#FFFFFF;" d="M2574.256,1736.657c-17.2,10.363-32.99,23.331-46.663,38.524l-112.315,124.687l109.06-163.265
					L2574.256,1736.657z"/>
				<polygon style="fill:#FFFFFF;" points="2756.783,1582.67 2683.371,1692.544 2644.141,1691.35 2729.165,1564.168 				"/>
				<path style="fill:#E5F0F8;" d="M2683.371,1692.544l-9.821,14.704l-19.75,29.517l-5.372,8.03
					c-20.293,5.589-39.609,14.27-57.189,25.664l22.572-33.749l15.464-23.114l14.867-22.246L2683.371,1692.544z"/>
				<path style="fill:#FFFFFF;" d="M2648.428,1744.795l-215.95,323.112l-27.672-18.502l186.434-278.891v-0.054
					C2608.819,1759.066,2628.135,1750.384,2648.428,1744.795z"/>
				<path style="fill:#E5F0F8;" d="M2613.973,1690.428l-25.773,38.578l-5.155,7.705l-106.727,159.63l-0.108,0.163l-86.326,106.673
					c-6.023,7.379-14.487,12.1-23.603,13.402l-20.076-13.402l69.017-103.254l0.054-0.054l112.315-124.687
					c13.673-15.192,29.463-28.16,46.663-38.524l-49.918-0.054l32.067-47.965L2613.973,1690.428z"/>
				<path style="fill:#BBDBF3;" d="M3492.425,2014.679l-12.208,1.899c-13.131,2.008-26.315-3.093-34.671-13.402l-153.336-189.472
					c-39.066-48.291-97.829-76.342-159.955-76.397l-214.54-0.217h-15.301l-248.614-0.325l19.75-29.517l9.821-14.704l233.693,7.217
					h0.651l243.351,7.433c35.648,1.085,70.048,11.394,100.053,29.463h0.109c17.2,10.472,32.827,23.331,46.554,38.524
					l193.487,214.703C3509.245,1998.727,3504.199,2012.888,3492.425,2014.679z"/>
			</g>
		</g>
		<path style="fill:#E5F0F8;" d="M3223.918,1622.923c-62.555,0.258-168.9,32.529-195.174,112.6
			c-26.273,80.071,6.255,261.483,195.174,270.24s236.461-197.676,208.936-267.738
			C3405.33,1667.963,3349.342,1622.407,3223.918,1622.923z"/>
		<circle style="fill:#BBDBF3;" cx="2324.368" cy="1718.633" r="8.758"/>
		<g>
			<defs>
				<path id="SVGID_00000060015788452948539450000015464077173223985065_" d="M3223.918,1622.923
					c-62.555,0.258-168.9,32.529-195.174,112.6c-26.273,80.071,6.255,261.483,195.174,270.24s236.461-197.676,208.936-267.738
					C3405.33,1667.963,3349.342,1622.407,3223.918,1622.923z"/>
			</defs>
			<clipPath id="SVGID_00000016793251147072386650000000675691647036025504_">
				<use xlink:href="#SVGID_00000060015788452948539450000015464077173223985065_"  style="overflow:visible;"/>
			</clipPath>
			<g style="clip-path:url(#SVGID_00000016793251147072386650000000675691647036025504_);">
				<path style="fill:#BBDBF3;" d="M3492.425,2014.679l-12.208,1.899c-13.131,2.008-26.315-3.093-34.671-13.402l-153.336-189.472
					c-13.673-16.874-29.734-31.253-47.477-42.865l20.998-31.307h0.054c15.409,9.929,29.517,21.812,41.996,35.648l193.487,214.703
					C3509.245,1998.727,3504.199,2012.888,3492.425,2014.679z"/>
				<path style="fill:#BBDBF3;" d="M3175.987,1691.839l-10.472,15.518l-19.804,29.463l-227.996,0.271l-343.459-0.434
					c30.005-18.068,64.405-28.377,100.108-29.463l243.351-7.433L3175.987,1691.839z"/>
				<path style="fill:#BBDBF3;" d="M3266.654,1689.017l-25.068,37.276l-6.999,10.418l-13.89,20.618
					c-8.139-3.853-16.549-7.217-25.122-9.984l7.162-10.58l13.619-20.239l17.797-26.478L3266.654,1689.017z"/>
				<polygon style="fill:#BBDBF3;" points="3476.527,1736.44 3267.684,1736.657 3300.457,1687.986 3433.771,1683.917 				"/>
				<path style="fill:#E5F0F8;" d="M3234.153,1690.048l-17.797,26.478l-13.619,20.239l-7.162,10.58
					c-16.223-5.263-33.206-8.573-50.461-9.604l0.597-0.922l19.804-29.463l10.472-15.518L3234.153,1690.048z"/>
				<path style="fill:#FFFFFF;" d="M3145.113,1737.742c17.255,1.031,34.238,4.341,50.461,9.604l-169.668,252.141l-39.175-26.37
					L3145.113,1737.742z"/>
				<polygon style="fill:#FFFFFF;" points="3304.906,1584.895 3234.153,1690.048 3175.987,1691.839 3265.677,1558.525 				"/>
				<path style="fill:#E5F0F8;" d="M3267.684,1736.657h-6.565c1.52,0.977,3.093,1.899,4.612,2.876l-20.998,31.307
					c-7.705-5.046-15.735-9.55-24.037-13.51l13.89-20.618l6.999-10.418l25.068-37.276l33.803-1.031L3267.684,1736.657z"/>
				<path style="fill:#FFFFFF;" d="M3220.696,1757.329c8.302,3.961,16.332,8.464,24.037,13.51l-165.652,246.172l-22.789-15.301
					L3220.696,1757.329z"/>
				<path style="fill:#DEECFF;" d="M3261.119,1736.657h6.565l-1.899,2.876h-0.054
					C3264.212,1738.556,3262.638,1737.633,3261.119,1736.657z"/>
				<polygon style="fill:#FFFFFF;" points="3358.026,1602.42 3300.457,1687.986 3266.654,1689.017 3335.237,1587.065 				"/>
			</g>
		</g>
		<circle style="fill:#BBDBF3;" cx="2367.643" cy="1718.633" r="8.758"/>
		<circle style="fill:#BBDBF3;" cx="3511.049" cy="1718.633" r="8.758"/>
		<circle style="fill:#BBDBF3;" cx="3467.773" cy="1718.633" r="8.758"/>
	</g>
	<g>
		<polygon style="fill:#2D628C;" points="1262.563,503.366 1262.28,460.646 1312.406,468.042 		"/>
		<path style="fill:#FDAE97;" d="M1533.782,300.717l4.523-13.257c0,0,8.146-12.673,10.577-17.579
			c1.371-2.766,5.827-9.827,6.979-10.703c0.912-0.694,3.565-0.429,3.799,0.668c0.304,1.425-1.942,9.315-2.761,12.423
			c-0.779,2.955-3.116,11.82-3.116,11.82s17.123-15.557,22.559-21.093c3.06-3.116,11.609-12.595,13.918-10.608
			c1.759,1.514-5.908,12.188-8.498,15.866c-2.38,3.38-9.424,13.59-9.424,13.59s11.946-12.423,15.927-16.564
			c2.897-3.013,10.403-13.081,13.049-10.929c2.619,2.13-5.495,11.511-7.852,14.943c-3.327,4.845-13.31,19.378-13.31,19.378
			s12.791-12.712,17.055-16.95c2.359-2.345,8.481-10.243,10.817-8.063c2.379,2.221-4.822,9.38-6.9,12.057
			c-3.559,4.588-14.235,18.351-14.235,18.351s9.494-8.935,12.659-11.913c1.352-1.273,5.501-4.944,6.71-3.58
			c1.645,1.857-3.587,7.227-5.142,9.217l-12.856,16.454c-1.04,1.331-2.23,2.532-3.542,3.574l-21.773,21.861L1533.782,300.717z"/>
		<path style="fill:#0775EF;" d="M1364.797,453.621l169.645,107.429c4.865,2.037,9.488,4.872,13.615,8.622
			c19.427,17.65,20.867,47.708,3.216,67.134c-17.65,19.427-47.707,20.867-67.134,3.216l-195.562-102.511L1364.797,453.621z"/>
		<path style="fill:#0775EF;" d="M1563.414,611.472c0.31-2.191,0.525-4.413,0.525-6.69c0-26.248-21.278-47.526-47.526-47.526
			c-26.248,0-47.526,21.278-47.526,47.526l2.811,212.217h79.084L1563.414,611.472z"/>
		<path style="fill:#088CFC;" d="M1274.869,536.59l106.254,127.094c18.756,22.435,52.458,25.445,74.893,6.689v0
			c22.435-18.756,25.445-52.458,6.689-74.893l-106.254-127.094c-18.756-22.435-52.458-25.445-74.893-6.689h0
			C1259.123,480.453,1256.113,514.154,1274.869,536.59z"/>
		<polygon style="fill:#E5F0F8;" points="1361.818,249.674 1412.078,272.305 1405.149,476.466 1262.28,478.679 1240.628,268.664 
			1310.407,245.942 		"/>
		<path style="fill:#FDAE97;" d="M1361.804,220.188v31.884c0,0-1.905,6.885-18.115,6.952c-16.176,0.033-33.287-10.695-33.287-10.695
			l5.013-69.716L1361.804,220.188z"/>
		<polygon style="fill:#E89780;" points="1361.818,247.698 1328.705,213.322 1361.818,212.888 		"/>
		<path style="fill:#FDAE97;" d="M1375.375,156.053c0,0,0,19.551,0,33.421v11.463c0,9.057-2.54,22.493-12.734,25.601
			c-10.16,3.108-24.163-1.136-33.922-11.731c-9.759-10.628-31.416-58.487-1.304-76.167
			C1357.561,120.961,1374.673,151.374,1375.375,156.053z"/>
		<path style="fill:#F9E181;" d="M1443.546,435.475c10.619,8.709,25.93,8.304,36.127-0.282l0,0l89.37-103.423l-12.272-12.931
			l-22.583-23.863l-2.597-2.781l-92.032,103.623C1429.733,407.815,1431.549,425.651,1443.546,435.475z"/>
		<path style="fill:#088CFC;" d="M1475.282,624.891c0-26.248-21.278-47.526-47.526-47.526c-26.248,0-40.652,10.945-46.378,37.122
			c-13.293,60.771-41.175,222.621-41.175,222.621h82.349l52.204-205.527C1475.067,629.389,1475.282,627.168,1475.282,624.891z"/>
		<path style="fill:#F9E181;" d="M1476.597,436.772L1476.597,436.772c-15.72,8.918-35.878,3.352-44.796-12.368l-59.283-104.506
			c-8.917-15.72-3.352-35.878,12.368-44.795l0,0c15.72-8.917,35.878-3.352,44.795,12.368l59.283,104.506
			C1497.883,407.696,1492.317,427.854,1476.597,436.772z"/>
		<path style="fill:#322A28;" d="M1330.541,136.982c0,0,36.437-16.809,44.84-5.769c8.403,11.04-5.596,14.895-5.596,14.895
			s17.379-2.052,16.703,9.664c-0.676,11.716-44.161-4.281-44.161-4.281s14.42,6.534,6.083,11.716
			c-8.337,5.182-17.869-1.577-17.869-1.577s-8.268,4.727-6.915,26.44c1.353,21.713-11.607,26.508-11.607,26.508
			s1.552-32.895-4.799-41.682C1300.87,164.108,1310.193,131.486,1330.541,136.982z"/>
		<g>
			<path style="fill:#FDAE97;" d="M1325.668,193.104c3.536,5.537,4.48,9.435,0.133,12.211c-4.348,2.776-11.576,1.899-15.112-3.638
				c-3.536-5.537-2.878-12.277,1.469-15.053C1316.506,183.848,1322.132,187.566,1325.668,193.104z"/>
			<path style="fill:none;stroke:#E89780;stroke-width:0.8008;stroke-miterlimit:10;" d="M1314.319,192.679
				c0,0,4.466-0.666,7.524,5.057c0,0-2.821-0.648-6.252,0"/>
		</g>
		<path style="fill:#2C3447;" d="M1348.299,181.487c0,2.101,1.102,3.804,2.461,3.804s2.461-1.703,2.461-3.804
			c0-2.101-1.102-3.804-2.461-3.804S1348.299,179.386,1348.299,181.487z"/>
		<path style="fill:none;stroke:#2C3447;stroke-width:1.0026;stroke-miterlimit:10;" d="M1349.879,205.347
			c0,0,3.655,7.117,12.901,5.448"/>
		<path style="fill:none;stroke:#2C3447;stroke-width:1.0026;stroke-miterlimit:10;" d="M1358.75,182.941l4.637,13.416
			c0.47,1.359-0.047,2.864-1.252,3.648l-3.779,2.459"/>
		<path style="fill:none;stroke:#2C3447;stroke-width:1.0026;stroke-miterlimit:10;" d="M1344.423,175.173
			c0,0,5.183-3.625,10.123-1.327"/>
		<path style="fill:#2C3447;" d="M1373.711,181.487c0,2.101-1.102,3.804-2.461,3.804s-2.461-1.703-2.461-3.804
			c0-2.101,1.102-3.804,2.461-3.804S1373.711,179.386,1373.711,181.487z"/>
		<path style="fill:none;stroke:#2C3447;stroke-width:1.0026;stroke-miterlimit:10;" d="M1375.995,174.964
			c0,0-3.591-3.417-8.531-1.118"/>
		<path style="fill:#F9E181;" d="M1209.642,448.757L1209.642,448.757c-17.495-4.537-28.097-22.562-23.56-40.057l30.16-116.303
			c4.536-17.495,22.562-28.096,40.057-23.56h0c17.495,4.537,28.096,22.562,23.56,40.057l-30.16,116.303
			C1245.162,442.692,1227.136,453.294,1209.642,448.757z"/>
		<path style="fill:#E89780;" d="M1352.21,195.359c-0.646,1.93-4.281,2.453-8.119,1.168c-3.838-1.285-6.425-3.892-5.778-5.822
			c0.646-1.93,4.282-2.453,8.119-1.168C1350.27,190.822,1352.857,193.429,1352.21,195.359z"/>
		<path style="fill:#E89780;" d="M1375.375,189.474v7.453c-3.141,0.368-5.715-0.501-6.15-2.139
			C1368.757,192.849,1371.498,190.476,1375.375,189.474z"/>
		<polygon style="fill:#FDAE97;" points="1481.191,848.822 1479.553,816.999 1543.779,816.999 1544.796,848.822 		"/>
		<polygon style="fill:#E89780;" points="1544.37,835.5 1479.553,816.999 1543.779,816.999 		"/>
		<polygon style="fill:#FDAE97;" points="1339.803,868.93 1345.056,837.108 1407.743,837.108 1399.766,868.93 		"/>
		<polygon style="fill:#F74242;" points="1352.553,264.689 1340.921,264.689 1339.902,266.897 1345.261,270.888 1349.836,270.888 
			1353.656,266.218 		"/>
		<polygon style="fill:#E89780;" points="1403.911,852.397 1345.056,837.108 1407.743,837.108 		"/>
		<polygon style="fill:#FFFFFF;" points="1310.601,245.576 1347.161,259.023 1340.496,274.284 1308.988,248.928 		"/>
		<polygon style="fill:#FFFFFF;" points="1361.804,249.279 1363.559,252.856 1354.081,272.84 1347.161,259.023 		"/>
		<polygon style="fill:#F74242;" points="1349.836,270.888 1367.157,405.328 1353.656,422.733 1336.104,406.946 1345.261,270.888 		
			"/>
		
			<line style="fill:none;stroke:#2C3447;stroke-width:1.0026;stroke-miterlimit:10;" x1="1273.154" y1="337.166" x2="1253.921" y2="416.63"/>
		
			<line style="fill:none;stroke:#2C3447;stroke-width:1.0026;stroke-miterlimit:10;" x1="1408.321" y1="385.409" x2="1409.958" y2="337.166"/>
		<path style="fill:#586773;" d="M1339.803,868.93l-5.636,23.196h84.127l0,0c2.723-11.872-6.296-23.196-18.477-23.196h-0.052
			H1339.803z"/>
		<path style="fill:#586773;" d="M1481.191,848.822v25.256h88.115l-0.108-2.083c-0.672-12.987-11.398-23.173-24.403-23.173l0,0
			H1481.191z"/>
		
			<path style="fill:none;stroke:#FFFFFF;stroke-width:0.5335;stroke-linecap:round;stroke-linejoin:round;stroke-miterlimit:10;" d="
			M1546.061,853.845c0,0,1.918-8.392,6.654-6.114c4.735,2.278-6.354,6.414-6.354,6.414l6.594,4.556"/>
		
			<path style="fill:none;stroke:#FFFFFF;stroke-width:0.5335;stroke-linecap:round;stroke-linejoin:round;stroke-miterlimit:10;" d="
			M1546.061,853.845c0,0-1.918-8.392-6.654-6.114c-4.735,2.278,6.354,6.414,6.354,6.414l-6.594,4.556"/>
		
			<path style="fill:none;stroke:#FFFFFF;stroke-width:0.5335;stroke-linecap:round;stroke-linejoin:round;stroke-miterlimit:10;" d="
			M1399.165,874.903c0,0,1.918-8.392,6.654-6.114c4.735,2.278-6.354,6.414-6.354,6.414l6.594,4.556"/>
		
			<path style="fill:none;stroke:#FFFFFF;stroke-width:0.5335;stroke-linecap:round;stroke-linejoin:round;stroke-miterlimit:10;" d="
			M1399.165,874.903c0,0-1.918-8.392-6.654-6.114c-4.736,2.278,6.354,6.414,6.354,6.414l-6.594,4.556"/>
		<path style="fill:#F9E181;" d="M1367.111,252.117c0,0,3.439,35.954,9.006,90.248s5.202,139.038,22.737,155.3
			c0,0,18.066,1.345,54.644,12.126c0,0-10.229-34.381-22.755-53.847c-12.527-19.465-18.664-183.639-18.664-183.639L1367.111,252.117
			z"/>
		<polygon style="fill:#E5F0F8;" points="1370.08,282.491 1374.326,324.824 1360.828,313.32 1361.804,283.319 		"/>
		<path style="fill:#F9E181;" d="M1297.968,249.992c0,0,13.501,58.225,20.114,112.218c6.612,53.993,4.37,106.207,21.382,137.912
			c0,0-68.239,12.276-68.082,39.8c0,0-19.237-21.215-19.403-50.274c-0.166-29.058-11.35-220.984-11.35-220.984L1297.968,249.992z"/>
		<g>
			<polygon style="fill:#A5BBD6;" points="1522.074,556.341 1367.436,556.341 1407.794,440.543 1562.432,440.543 			"/>
			<g>
				<polygon style="fill:#89A5C7;" points="1369.122,550.72 1318.556,505.992 1468.125,505.992 1523.76,550.72 				"/>
				<polygon style="fill:#A5BBD6;" points="1519.153,553.778 1364.515,553.778 1404.873,437.98 1559.511,437.98 				"/>
				<polygon style="fill:#89A5C7;" points="1559.511,437.98 1562.432,440.543 1407.794,440.543 1367.436,556.341 1364.515,553.778 
					1404.873,437.98 				"/>
				<polygon style="fill:#586773;" points="1318.556,505.992 1316.869,511.613 1367.436,556.341 1369.395,550.72 				"/>
			</g>
			<ellipse style="fill:#89A5C7;" cx="1471.454" cy="499.759" rx="17.145" ry="7.589"/>
		</g>
		<path style="fill:#FDAE97;" d="M1349.826,470.759l-22.894,39.333l0.128,0.08c10.502,5.532,32.531,26.67,40.489,34.475
			c1.829,1.733,4.457,2.183,6.73,1.106l21.622-10.036c3.404-1.559,5.942-4.49,7.02-8.032l4.739-15.328
			c0.441-1.565-0.961-3.032-2.514-2.634l-12.293,3.442c-1.761,0.446-3.632-0.363-4.382-2.017l-6.992-14.503l19.921,11.754
			c1.139,0.65,2.612,0.38,3.417-0.721l1.098-1.572c0.804-1.102,0.631-2.634-0.417-3.524l-31.504-25.556l-23.11-5.49
			C1350.885,471.537,1350.527,471.255,1349.826,470.759z"/>
		<path style="fill:#F9E181;" d="M1191.212,404.017c-9.669,14.572-7.012,33.557,5.903,42.076l128.144,73.458l31.773-54.624
			l-118.783-73.494C1225.334,382.914,1200.865,389.375,1191.212,404.017z"/>
		<polyline style="fill:none;stroke:#322A28;stroke-width:1.3796;stroke-miterlimit:10;" points="1325.502,445.418 
			1255.661,402.205 1270.819,346.81 		"/>
	</g>
	<g>
		<g>
			<path style="fill:#FDAE97;" d="M3673.428,1413.57c0,0-10.85-8.403-9.622-12.136c1.228-3.734,3.228-1.44,3.228-1.44
				s-4.789-7.292-2.948-10.221c1.841-2.928,5.815,0.788,5.815,0.788s-1.134-5.497,2.275-7.202
				c3.408-1.705,14.844,6.633,20.655,9.586c5.811,2.953,19.901,8.762,21.917,7.735c2.017-1.027-14.444-12.789-12.771-16.607
				c1.672-3.818,28.092,7.994,37.18,13.413c3.908,2.331,8.898,4.539,13.321,6.301l-9.02,34.259
				c-5.887-0.703-33.916-4.126-45.409-6.844c-12.876-3.044-28.348-12.505-27.803-15.465
				C3670.792,1412.78,3673.428,1413.57,3673.428,1413.57z"/>
			<path style="fill:#F74242;" d="M3872.504,1484.745c15.674,3.409,31.659-8.33,35.521-26.088
				c3.863-17.758-5.802-35.076-21.476-38.485l-136.992-24.092l-11.414,45.031L3872.504,1484.745z"/>
			<rect x="3927.028" y="1617.021" style="fill:#E5F0F8;" width="121.428" height="179.558"/>
			<path style="fill:#F74242;" d="M3859.675,1480.674L3859.675,1480.674c16.411,9.309,37.454,3.499,46.763-12.911l61.887-109.097
				c9.309-16.411,3.499-37.454-12.912-46.763v0c-16.411-9.309-37.454-3.499-46.763,12.912l-61.887,109.097
				C3837.455,1450.322,3843.265,1471.365,3859.675,1480.674z"/>
			<path style="fill:#0775EF;" d="M3927.028,1519.052l-36.086,206.491c-1.842,5.189-2.896,10.751-2.896,16.572
				c0,27.401,22.213,49.613,49.613,49.613s49.613-22.213,49.613-49.613l58.079-223.063H3927.028z"/>
			<polygon style="fill:#088CFF;" points="4090.894,1517.137 3976.308,1498.989 3985.388,1663.773 3999.397,1697.781 
				4005.069,1746.624 4104.142,1744.248 			"/>
			<path style="fill:#0775EF;" d="M3888.594,1749.098c-0.323-2.288-0.548-4.607-0.548-6.984c0-27.401,22.212-49.613,49.613-49.613
				c27.401,0,49.614,22.213,49.614,49.613l-2.934,234.409l-83.644-0.049L3888.594,1749.098z"/>
			<path style="fill:#088CFF;" d="M4005.621,1739.641c4.286-27.063,29.701-45.528,56.764-41.241
				c27.063,4.286,40.128,17.924,41.757,45.849c3.782,64.83,9.177,231.245,9.177,231.245l-86.787-0.223l-21.462-228.646
				C4005.108,1744.314,4005.249,1741.988,4005.621,1739.641z"/>
			<polygon style="fill:#FFFFFF;" points="3979.496,1285.358 3927.028,1308.983 3927.028,1522.005 4091.178,1522.005 
				4104.219,1310.952 4033.166,1281.461 			"/>
			<path style="fill:#FDAE97;" d="M3979.51,1252.073v33.284c0,0,1.989,7.187,18.91,7.257c16.886,0.035,34.75-11.165,34.75-11.165
				l-5.233-72.779L3979.51,1252.073z"/>
			<polygon style="fill:#E89780;" points="3979.496,1280.792 4014.064,1244.906 3979.496,1244.452 			"/>
			<path style="fill:#FDAE97;" d="M3985.311,1176.779c0,0-6.415,19.376-10.965,33.121l-3.761,11.361
				c-2.972,8.976-4.862,23.124,4.22,29.549c9.049,6.414,24.319,6.802,37.467-0.496c13.158-7.331,50.323-47.655,26.281-75.056
				C4014.478,1147.846,3987.541,1172.372,3985.311,1176.779z"/>
			<path style="fill:#322A28;" d="M4036,1172.589c0,0-30.596-28.613-42.545-20.429s0.659,16.597,0.659,16.597
				s-16.55-7.735-19.724,4.097c-3.174,11.833,45.169,10.246,45.169,10.246s-16.434,1.744-9.873,9.615
				c6.562,7.871,18.227,4.3,18.227,4.3s6.643,7.397-1.822,28.472c-8.464,21.074,5.152,29.152,5.152,29.152
				s6.909-32.183,16.085-38.807S4057.968,1173.818,4036,1172.589z"/>
			<g>
				<path style="fill:#FDAE97;" d="M4022.415,1229.806c-5.321,4.328-7.536,7.88-4.138,12.058s10.849,5.68,16.17,1.353
					c5.321-4.328,6.88-11.222,3.482-15.4C4034.532,1223.639,4027.736,1225.478,4022.415,1229.806z"/>
				<path style="fill:none;stroke:#E89780;stroke-width:0.836;stroke-miterlimit:10;" d="M4033.802,1233.109
					c0,0-4.208-2.126-9.115,2.543c0,0,3.009,0.284,6.197,2.051"/>
			</g>
			<path style="fill:#322A28;" d="M4002.57,1210.644c-0.689,2.082-2.34,3.408-3.687,2.963c-1.347-0.446-1.88-2.495-1.191-4.577
				c0.689-2.082,2.34-3.408,3.687-2.963C4002.726,1206.513,4003.259,1208.562,4002.57,1210.644z"/>
			<path style="fill:none;stroke:#332B27;stroke-width:1.0467;stroke-miterlimit:10;" d="M3994.405,1233.996
				c0,0-5.958,5.854-14.573,1.166"/>
			<path style="fill:none;stroke:#332B27;stroke-width:1.0467;stroke-miterlimit:10;" d="M3992.964,1208.88l-8.996,11.774
				c-0.912,1.193-0.894,2.853,0.044,4.026l2.938,3.676"/>
			<path style="fill:none;stroke:#332B27;stroke-width:1.0467;stroke-miterlimit:10;" d="M4009.711,1205.882
				c0,0-3.947-5.293-9.596-4.636"/>
			<path style="fill:#322A28;" d="M3977.386,1202.307c-0.689,2.082-0.156,4.131,1.191,4.577c1.347,0.446,2.998-0.88,3.687-2.963
				c0.689-2.082,0.156-4.131-1.191-4.577C3979.726,1198.898,3978.075,1200.224,3977.386,1202.307z"/>
			<path style="fill:none;stroke:#332B27;stroke-width:1.0467;stroke-miterlimit:10;" d="M3978.492,1195.317
				c0,0,4.679-2.208,8.821,1.691"/>
			<path style="fill:#F74242;" d="M4131.29,1497.133L4131.29,1497.133c18.268-4.718,29.354-23.524,24.637-41.792l-31.362-121.443
				c-4.718-18.268-23.524-29.354-41.792-24.637v0c-18.268,4.717-29.354,23.524-24.637,41.792l31.362,121.444
				C4094.216,1490.764,4113.022,1501.85,4131.29,1497.133z"/>
			<path style="fill:#F74242;" d="M4040.225,1284.391c0,0-31.453,68.714-33.885,133.511c-2.432,64.798,0,182.478,0,182.478h97.878
				v-289.428L4040.225,1284.391z"/>
			<path style="fill:#E89780;" d="M3995.371,1223.333c0.008,2.125,3.438,3.836,7.664,3.821c4.225-0.015,7.644-1.749,7.637-3.874
				c-0.008-2.125-3.438-3.836-7.664-3.821C3998.783,1219.474,3995.364,1221.208,3995.371,1223.333z"/>
			<path style="fill:#F74242;" d="M3975.452,1287.178c0,0-14.248,125.73-13.638,164.286c0.61,38.556-3.051,139.217-3.051,139.217
				h-47.364c0,0-1.782-59.828,0-97.318s15.628-184.381,15.628-184.381L3975.452,1287.178z"/>
			<path style="fill:#E89780;" d="M3974.345,1209.9l-2.445,7.386c2.993,1.395,5.828,1.378,6.796-0.102
				C3979.796,1215.417,3977.859,1212.166,3974.345,1209.9z"/>
			<polygon style="fill:#FDAE97;" points="3977.79,1996.875 3976.981,1976.519 3909.092,1976.48 3909.653,1996.875 			"/>
			<polygon style="fill:#E89780;" points="3909.572,1990.737 3976.981,1976.519 3909.092,1976.48 			"/>
			<polygon style="fill:#FDAE97;" points="4106.768,1996.875 4106.768,1975.493 4041.99,1975.493 4044.171,1996.875 			"/>
			<polygon style="fill:#E89780;" points="4043.331,1988.647 4106.768,1975.493 4041.99,1975.493 			"/>
			
				<line style="fill:none;stroke:#332B27;stroke-width:1.4351;stroke-miterlimit:10;" x1="3920.115" y1="1375.795" x2="3911.401" y2="1460.01"/>
			<path style="fill:#FDAE97;" d="M4053.249,1675.397l11.583-6.584c1.651-0.939,2.393-2.924,1.762-4.715l-5.571-15.829l-6.01,23.358
				c-0.347,1.35-1.665,2.214-3.042,1.995l-1.992-0.317c-1.417-0.226-2.41-1.519-2.263-2.946l4.345-42.094l12.995-21.152
				l46.115,10.917c-3.659,11.863-4.318,43.731-4.436,55.351c-0.027,2.604-1.667,4.915-4.113,5.81l-23.371,8.549
				c-3.652,1.336-7.699,1.061-11.137-0.755l-14.809-7.824C4051.808,1678.368,4051.775,1676.234,4053.249,1675.397z"/>
			<path style="fill:#F74242;" d="M4091.517,1457.121c3.223-15.825,20.528-25.785,38.457-22.134
				c17.929,3.651,29.96,19.587,26.737,35.411l-41.301,150.999l-56.955-13.345
				C4058.359,1608.033,4091.517,1457.121,4091.517,1457.121z"/>
			<path style="fill:none;stroke:#F7E7DC;stroke-width:1.1819;stroke-miterlimit:10;" d="M3994.402,1208.484
				c-1.784,3.93-0.666,8.281,2.498,9.718c3.164,1.437,7.175-0.585,8.96-4.516c1.785-3.931,0.666-8.281-2.498-9.718
				C4000.198,1202.532,3996.187,1204.554,3994.402,1208.484z"/>
			<path style="fill:none;stroke:#F7E7DC;stroke-width:1.1819;stroke-miterlimit:10;" d="M3975.606,1202.324
				c-1.684,3.709-0.78,7.746,2.019,9.017c2.799,1.271,6.434-0.706,8.118-4.415c1.684-3.709,0.78-7.746-2.019-9.017
				C3980.925,1196.638,3977.291,1198.615,3975.606,1202.324z"/>
			
				<line style="fill:none;stroke:#F7E7DC;stroke-width:1.1819;stroke-miterlimit:10;" x1="3994.764" y1="1207.774" x2="3986.457" y2="1204.625"/>
			<path style="fill:#332B27;" d="M3979.931,2025.237h-95.085l0.112-4.241c0-0.614,0.056-1.227,0.112-1.842
				c1.227-12.555,11.773-22.264,24.608-22.264h68.132l1.674,22.264L3979.931,2025.237z"/>
			<path style="fill:#FFFFFF;" d="M3979.931,2025.237h-95.085l0.112-4.241c0-0.614,0.056-1.227,0.112-1.842h94.414
				L3979.931,2025.237z"/>
			
				<path style="fill:none;stroke:#FFFFFF;stroke-width:0.5761;stroke-linecap:round;stroke-linejoin:round;stroke-miterlimit:10;" d="
				M3912.117,2003.916c0,0-2.071-9.063-7.185-6.603c-5.114,2.46,6.862,6.926,6.862,6.926l-7.12,4.92"/>
			
				<path style="fill:none;stroke:#FFFFFF;stroke-width:0.5761;stroke-linecap:round;stroke-linejoin:round;stroke-miterlimit:10;" d="
				M3912.117,2003.916c0,0,2.071-9.063,7.185-6.603c5.114,2.46-6.862,6.926-6.862,6.926l7.121,4.92"/>
			<path style="fill:#332B27;" d="M4133.773,2025.237h-87.663l-0.447-6.083l-1.507-22.264h62.61
				c13.168,0,24.272,9.542,26.394,22.264c0.224,0.893,0.335,1.842,0.39,2.79L4133.773,2025.237z"/>
			<path style="fill:#FFFFFF;" d="M4133.773,2025.237h-87.663l-0.447-6.083h87.497c0.224,0.893,0.335,1.842,0.39,2.79
				L4133.773,2025.237z"/>
			
				<path style="fill:none;stroke:#FFFFFF;stroke-width:0.5761;stroke-linecap:round;stroke-linejoin:round;stroke-miterlimit:10;" d="
				M4111.776,2003.916c0,0-2.071-9.063-7.185-6.603c-5.114,2.46,6.861,6.926,6.861,6.926l-7.121,4.92"/>
			
				<path style="fill:none;stroke:#FFFFFF;stroke-width:0.5761;stroke-linecap:round;stroke-linejoin:round;stroke-miterlimit:10;" d="
				M4111.776,2003.916c0,0,2.071-9.063,7.185-6.603c5.114,2.46-6.861,6.926-6.861,6.926l7.121,4.92"/>
			<polyline style="fill:none;stroke:#332B27;stroke-width:1.4351;stroke-miterlimit:10;" points="4058.454,1608.052 
				4089.498,1472.496 4068.615,1391.629 			"/>
		</g>
		<g>
			<path style="fill:#6ADB6A;" d="M3794.295,1189.657l71.004,713.786l-133.004,13.23l-71.004-713.786
				c1.292,12.986,9.788,22.833,18.971,21.92c9.182-0.913,15.572-12.241,14.28-25.227c1.292,12.986,9.788,22.833,18.971,21.92
				c9.183-0.913,15.572-12.241,14.28-25.227c1.292,12.986,9.788,22.833,18.971,21.92c9.182-0.913,15.572-12.241,14.28-25.227
				c1.292,12.986,9.788,22.833,18.971,21.92C3789.198,1213.971,3795.587,1202.643,3794.295,1189.657z"/>
			<path style="fill:#F9D6AF;" d="M3794.292,1189.658c1.236,12.427-5.198,23.299-14.381,24.212
				c-9.183,0.913-17.634-8.478-18.87-20.905c1.236,12.427-5.199,23.299-14.381,24.212c-9.183,0.913-17.634-8.478-18.87-20.905
				c1.236,12.427-5.198,23.299-14.381,24.212c-9.183,0.913-17.634-8.478-18.87-20.905c1.236,12.427-5.199,23.299-14.381,24.212
				c-9.183,0.913-17.634-8.478-18.87-20.905c-0.078-0.787-0.129-1.543-0.132-2.305l4.187-15.317l34.701-126.599l10.312-37.649
				l17.527,34.88l58.962,117.281l7.122,14.192C3794.115,1188.119,3794.214,1188.871,3794.292,1189.658z"/>
			<path style="fill:#6ADB6A;" d="M3727.883,1055.899c-4.178,2.402-8.762,3.918-13.619,4.401s-9.649-0.1-14.219-1.632l10.312-37.649
				L3727.883,1055.899z"/>
			<path style="fill:#E7888B;" d="M3819.612,2023.556l-18.867,1.877c-31.518,3.135-59.61-19.873-62.745-51.391l-0.923-9.28
				l133.004-13.231l0.923,9.28C3874.138,1992.328,3851.129,2020.42,3819.612,2023.556z"/>
			<path style="fill:#93ACBF;" d="M3869.563,1953.254l-131.639,13.095c-3.655,0.364-6.913-2.305-7.277-5.96l-6.457-64.911
				c-0.364-3.655,2.305-6.913,5.96-7.277l131.64-13.095c3.655-0.364,6.913,2.305,7.277,5.96l6.457,64.911
				C3875.886,1949.633,3873.218,1952.891,3869.563,1953.254z"/>
			
				<line style="fill:none;stroke:#BBDBF3;stroke-width:1.835;stroke-linecap:round;stroke-linejoin:round;stroke-miterlimit:10;" x1="3738.102" y1="1906.614" x2="3826.802" y2="1897.79"/>
			
				<line style="fill:none;stroke:#BBDBF3;stroke-width:1.835;stroke-linecap:round;stroke-linejoin:round;stroke-miterlimit:10;" x1="3754.865" y1="1927.931" x2="3863.75" y2="1917.099"/>
			
				<line style="fill:none;stroke:#BBDBF3;stroke-width:1.835;stroke-linecap:round;stroke-linejoin:round;stroke-miterlimit:10;" x1="3746.895" y1="1951.708" x2="3838.153" y2="1942.63"/>
			
				<line style="fill:none;stroke:#40A87B;stroke-width:2.4587;stroke-linecap:round;stroke-linejoin:round;stroke-miterlimit:10;" x1="3695.972" y1="1226.219" x2="3753.769" y2="1807.235"/>
			
				<line style="fill:none;stroke:#40A87B;stroke-width:2.4587;stroke-linecap:round;stroke-linejoin:round;stroke-miterlimit:10;" x1="3729.584" y1="1214.305" x2="3793.137" y2="1853.183"/>
			
				<line style="fill:none;stroke:#40A87B;stroke-width:2.4587;stroke-linecap:round;stroke-linejoin:round;stroke-miterlimit:10;" x1="3766.729" y1="1224.634" x2="3774.788" y2="1305.641"/>
			
				<line style="fill:none;stroke:#40A87B;stroke-width:2.4587;stroke-linecap:round;stroke-linejoin:round;stroke-miterlimit:10;" x1="3776.092" y1="1318.756" x2="3821.073" y2="1770.933"/>
		</g>
	</g>
	<g>
		<g>
			<g>
				<path style="fill:#0775EF;" d="M476.612,1793.773c-0.395,23.241-18.306,42.174-40.908,44.28
					c4.404,21.182,12.286,41.733,23.76,60.822c18.053-13.913,43.992-12.399,60.239,4.473c4.269,4.368,7.434,9.48,9.583,14.833
					c5.868,15.014,3.355,32.571-7.293,45.477c12.057,7.855,24.775,14.223,37.927,19.221c5.963,2.229,12.048,4.196,18.162,5.833
					c1.2,0.379,2.464,0.668,3.651,0.969c3.017-22.598,22.511-39.748,45.753-39.353c11.752,0.258,22.318,4.851,30.166,12.313
					c7.823,7.304,12.994,17.385,14.113,28.594c21.103-4.391,41.654-12.273,60.665-23.735c-13.755-18.078-12.149-43.95,4.564-60.172
					c16.803-16.155,42.734-16.755,60.31-2.289c12.11-18.585,20.774-38.904,25.93-59.807c-22.52-3.03-39.656-22.445-39.182-45.698
					c0.395-23.241,18.306-42.174,40.909-44.281c-4.392-21.102-12.286-41.733-23.748-60.742
					c-16.086,12.463-38.697,12.457-54.877,0.13c-1.825-1.257-3.621-2.844-5.283-4.614c-16.247-16.871-16.846-42.802-2.29-60.31
					c-11.335-7.4-23.287-13.563-35.687-18.436c-5.964-2.23-11.982-4.288-18.109-6.004c-2.042-0.572-4.084-1.144-6.114-1.637
					c-2.939,22.586-22.432,39.735-45.687,39.261c-4.239-0.063-8.328-0.718-12.161-1.82c-17.416-5.219-30.321-20.503-32.106-39.008
					c-21.103,4.391-41.654,12.273-60.664,23.735c13.754,18.078,12.148,43.951-4.564,60.172
					c-16.804,16.155-42.735,16.754-60.311,2.289c-12.109,18.585-20.774,38.904-26.008,59.819
					C459.937,1751.026,477.007,1770.531,476.612,1793.773z M563.469,1727.35c10.653-10.304,23.076-17.634,36.295-22
					c17.073-5.706,35.41-6.488,52.821-2.326c6.157,1.386,12.267,3.512,18.068,6.255c10.604,4.831,20.478,11.729,29.039,20.624
					c10.697,11.079,18.207,24.125,22.489,37.844c10.611,33.702,2.111,72.05-25.067,98.221c-3.249,3.116-6.694,6.018-10.281,8.537
					c-22.447,16.478-50.307,21.855-76.304,16.365c-6.224-1.294-12.308-3.261-18.244-5.82c-11.422-4.865-22.073-12.047-31.223-21.581
					c-3.601-3.741-6.829-7.704-9.765-11.876C524.704,1813.502,528.956,1760.617,563.469,1727.35z"/>
			</g>
		</g>
		<polygon style="fill:#0775EF;" points="678.852,1603.639 701.135,1584.144 695.328,1635.208 		"/>
		<polygon style="fill:#0775EF;" points="550.518,1606.311 528.234,1625.806 561.184,1641.238 571.011,1609.817 		"/>
		<polygon style="fill:#0775EF;" points="457.988,1818.559 435.704,1838.053 453.376,1852.27 473.443,1835.87 		"/>
		<polygon style="fill:#0775EF;" points="485.643,1668.773 463.36,1688.268 471.706,1710.456 477.494,1686.349 		"/>
		<polygon style="fill:#0775EF;" points="604.016,1970.185 581.732,1989.679 568.371,1973.824 581.298,1957.617 		"/>
		<polygon style="fill:#0775EF;" points="847.243,1735.757 824.959,1755.252 802.267,1736.6 814.422,1719.814 		"/>
		<polygon style="fill:#0775EF;" points="754.713,1948.005 732.429,1967.499 699.765,1962.055 722.745,1942.953 		"/>
		<polygon style="fill:#0775EF;" points="819.586,1885.543 797.303,1905.037 791.848,1867.85 811.817,1871.902 		"/>
		<g>
			<g>
				<path style="fill:#088CFC;" d="M498.895,1774.278c-0.395,23.241-18.306,42.174-40.908,44.28
					c4.404,21.182,12.286,41.733,23.76,60.822c18.053-13.913,43.992-12.399,60.239,4.473c4.269,4.368,7.434,9.479,9.583,14.833
					c5.868,15.014,3.355,32.571-7.293,45.476c12.057,7.855,24.775,14.223,37.927,19.221c5.963,2.229,12.048,4.196,18.162,5.833
					c1.2,0.379,2.464,0.667,3.651,0.969c3.017-22.598,22.511-39.748,45.753-39.353c11.752,0.258,22.318,4.851,30.166,12.313
					c7.823,7.303,12.994,17.385,14.114,28.594c21.103-4.391,41.654-12.273,60.664-23.735c-13.755-18.078-12.149-43.95,4.564-60.173
					c16.803-16.155,42.734-16.754,60.31-2.289c12.11-18.585,20.774-38.904,25.93-59.807c-22.52-3.03-39.656-22.445-39.182-45.698
					c0.395-23.241,18.306-42.174,40.909-44.281c-4.392-21.102-12.286-41.733-23.748-60.742
					c-16.086,12.463-38.697,12.457-54.877,0.13c-1.825-1.257-3.621-2.844-5.283-4.614c-16.247-16.871-16.846-42.802-2.29-60.31
					c-11.335-7.399-23.287-13.563-35.687-18.436c-5.964-2.23-11.982-4.288-18.109-6.004c-2.042-0.572-4.084-1.144-6.114-1.637
					c-2.939,22.586-22.432,39.735-45.687,39.261c-4.239-0.063-8.328-0.718-12.161-1.82c-17.416-5.219-30.321-20.503-32.106-39.008
					c-21.103,4.391-41.654,12.274-60.663,23.735c13.754,18.078,12.148,43.951-4.564,60.173
					c-16.804,16.155-42.734,16.754-60.31,2.289c-12.109,18.585-20.774,38.904-26.008,59.819
					C482.22,1731.531,499.29,1751.037,498.895,1774.278z M585.753,1707.855c10.653-10.304,23.076-17.634,36.295-21.999
					c17.073-5.706,35.41-6.489,52.821-2.326c6.157,1.386,12.267,3.512,18.068,6.255c10.604,4.831,20.478,11.729,29.039,20.624
					c10.697,11.079,18.207,24.125,22.488,37.844c10.611,33.702,2.112,72.05-25.067,98.221c-3.249,3.116-6.694,6.018-10.281,8.537
					c-22.447,16.478-50.307,21.855-76.304,16.365c-6.224-1.294-12.308-3.261-18.244-5.82c-11.422-4.865-22.073-12.047-31.223-21.581
					c-3.601-3.741-6.829-7.704-9.765-11.876C546.987,1794.007,551.239,1741.123,585.753,1707.855z"/>
			</g>
		</g>
	</g>
</g>
</svg>
