<svg id="wave" style="transform:rotate(180deg); transition: 0.3s" viewBox="0 0 1440 490" version="1.1" xmlns="http://www.w3.org/2000/svg"><defs><linearGradient id="sw-gradient-0" x1="0" x2="0" y1="1" y2="0"><stop stop-color="rgba(133.03, 62, 243, 1)" offset="0%"></stop><stop stop-color="rgba(255, 11, 180.051, 1)" offset="100%"></stop></linearGradient></defs><path style="transform:translate(0, 0px); opacity:1" fill="url(#sw-gradient-0)" d="M0,294L26.7,277.7C53.3,261,107,229,160,179.7C213.3,131,267,65,320,65.3C373.3,65,427,131,480,187.8C533.3,245,587,294,640,318.5C693.3,343,747,343,800,310.3C853.3,278,907,212,960,212.3C1013.3,212,1067,278,1120,269.5C1173.3,261,1227,180,1280,179.7C1333.3,180,1387,261,1440,318.5C1493.3,376,1547,408,1600,424.7C1653.3,441,1707,441,1760,392C1813.3,343,1867,245,1920,245C1973.3,245,2027,343,2080,326.7C2133.3,310,2187,180,2240,138.8C2293.3,98,2347,147,2400,187.8C2453.3,229,2507,261,2560,228.7C2613.3,196,2667,98,2720,57.2C2773.3,16,2827,33,2880,106.2C2933.3,180,2987,310,3040,334.8C3093.3,359,3147,278,3200,253.2C3253.3,229,3307,261,3360,228.7C3413.3,196,3467,98,3520,98C3573.3,98,3627,196,3680,212.3C3733.3,229,3787,163,3813,130.7L3840,98L3840,490L3813.3,490C3786.7,490,3733,490,3680,490C3626.7,490,3573,490,3520,490C3466.7,490,3413,490,3360,490C3306.7,490,3253,490,3200,490C3146.7,490,3093,490,3040,490C2986.7,490,2933,490,2880,490C2826.7,490,2773,490,2720,490C2666.7,490,2613,490,2560,490C2506.7,490,2453,490,2400,490C2346.7,490,2293,490,2240,490C2186.7,490,2133,490,2080,490C2026.7,490,1973,490,1920,490C1866.7,490,1813,490,1760,490C1706.7,490,1653,490,1600,490C1546.7,490,1493,490,1440,490C1386.7,490,1333,490,1280,490C1226.7,490,1173,490,1120,490C1066.7,490,1013,490,960,490C906.7,490,853,490,800,490C746.7,490,693,490,640,490C586.7,490,533,490,480,490C426.7,490,373,490,320,490C266.7,490,213,490,160,490C106.7,490,53,490,27,490L0,490Z"></path></svg>